<svg width="12" height="13" viewBox="0 0 12 13" fill="none" xmlns="http://www.w3.org/2000/svg">
<path d="M1 3.53857H11" stroke="white" stroke-linecap="round" stroke-linejoin="round"/>
<path d="M2.25 3.53857H9.75V11.154C9.75 11.3784 9.66217 11.5936 9.50592 11.7523C9.34967 11.9109 9.13767 12.0001 8.91667 12.0001H3.08333C2.86232 12.0001 2.65036 11.9109 2.49408 11.7523C2.3378 11.5936 2.25 11.3784 2.25 11.154V3.53857Z" stroke="white" stroke-linecap="round" stroke-linejoin="round"/>
<path d="M3.9165 3.53846V3.11538C3.9165 2.55435 4.136 2.01629 4.5267 1.61958C4.9174 1.22287 5.4473 1 5.99984 1C6.55237 1 7.08228 1.22287 7.47298 1.61958C7.86368 2.01629 8.08317 2.55435 8.08317 3.11538V3.53846" stroke="white" stroke-linecap="round" stroke-linejoin="round"/>
<path d="M4.75 6.07812V9.46404" stroke="white" stroke-linecap="round" stroke-linejoin="round"/>
<path d="M7.25 6.07812V9.46404" stroke="white" stroke-linecap="round" stroke-linejoin="round"/>
</svg>