<svg width="12" height="12" viewBox="0 0 12 12" fill="none" xmlns="http://www.w3.org/2000/svg">
<path d="M10.9947 10.1461C11.0081 10.2541 10.996 10.3633 10.9594 10.4668C10.9228 10.5701 10.8625 10.6654 10.7823 10.7461C10.702 10.8268 10.6036 10.8911 10.4939 10.9348C10.384 10.9786 10.2652 11.0008 10.1452 11H1.85474C1.73477 11.0008 1.61598 10.9786 1.50617 10.9348C1.39637 10.8911 1.29804 10.8268 1.21766 10.7461C1.1375 10.6654 1.07714 10.5701 1.04054 10.4668C1.00393 10.3633 0.991923 10.2541 1.0053 10.1461L1.75281 4.0769H10.2472L10.9947 10.1461Z" stroke="white" stroke-linecap="round" stroke-linejoin="round"/>
<path d="M3.87646 4.07692V2.92308C3.87646 2.41305 4.1002 1.9239 4.49845 1.56325C4.8967 1.20261 5.43685 1 6.00006 1C6.56327 1 7.10342 1.20261 7.50167 1.56325C7.89992 1.9239 8.12365 2.41305 8.12365 2.92308V4.07692" stroke="white" stroke-linecap="round" stroke-linejoin="round"/>
</svg>