<svg width="24" height="24" viewBox="0 0 24 24" fill="none" xmlns="http://www.w3.org/2000/svg">
<rect width="24" height="24" rx="6" fill="#433DFF"/>
<mask id="path-2-outside-1_246_1850" maskUnits="userSpaceOnUse" x="3.5" y="4.5" width="18" height="13" fill="black">
<rect fill="white" x="3.5" y="4.5" width="18" height="13"/>
<path d="M8.26884 15.56C7.64484 15.56 7.08084 15.416 6.57684 15.128C6.08084 14.84 5.68484 14.448 5.38884 13.952C5.10084 13.448 4.95284 12.884 4.94484 12.26V6.596C4.94484 6.452 4.98484 6.34 5.06484 6.26C5.15284 6.172 5.26884 6.128 5.41284 6.128C5.54884 6.128 5.65684 6.172 5.73684 6.26C5.82484 6.34 5.86884 6.452 5.86884 6.596V10.124C6.13284 9.748 6.48084 9.448 6.91284 9.224C7.35284 8.992 7.84084 8.876 8.37684 8.876C8.99284 8.876 9.54484 9.024 10.0328 9.32C10.5208 9.608 10.9048 10.004 11.1848 10.508C11.4728 11.012 11.6168 11.58 11.6168 12.212C11.6168 12.852 11.4688 13.424 11.1728 13.928C10.8848 14.432 10.4888 14.832 9.98484 15.128C9.48084 15.416 8.90884 15.56 8.26884 15.56ZM8.26884 14.72C8.73284 14.72 9.14884 14.612 9.51684 14.396C9.88484 14.172 10.1728 13.872 10.3808 13.496C10.5968 13.12 10.7048 12.692 10.7048 12.212C10.7048 11.74 10.5968 11.316 10.3808 10.94C10.1728 10.556 9.88484 10.256 9.51684 10.04C9.14884 9.824 8.73284 9.716 8.26884 9.716C7.81284 9.716 7.40084 9.824 7.03284 10.04C6.66484 10.256 6.37684 10.556 6.16884 10.94C5.96084 11.316 5.85684 11.74 5.85684 12.212C5.85684 12.692 5.96084 13.12 6.16884 13.496C6.37684 13.872 6.66484 14.172 7.03284 14.396C7.40084 14.612 7.81284 14.72 8.26884 14.72ZM15.1692 15.188L14.4132 14.78L18.8772 9.104L19.5012 9.632L15.1692 15.188ZM14.7492 15.5C14.4692 15.5 14.3292 15.36 14.3292 15.08C14.3292 14.8 14.4692 14.66 14.7492 14.66H19.2012C19.4812 14.66 19.6212 14.8 19.6212 15.08C19.6212 15.36 19.4812 15.5 19.2012 15.5H14.7492ZM14.7012 9.776C14.4212 9.776 14.2812 9.636 14.2812 9.356C14.2812 9.076 14.4212 8.936 14.7012 8.936H19.1532C19.4332 8.936 19.5732 9.076 19.5732 9.356C19.5732 9.636 19.4332 9.776 19.1532 9.776H14.7012Z"/>
</mask>
<path d="M8.26884 15.56C7.64484 15.56 7.08084 15.416 6.57684 15.128C6.08084 14.84 5.68484 14.448 5.38884 13.952C5.10084 13.448 4.95284 12.884 4.94484 12.26V6.596C4.94484 6.452 4.98484 6.34 5.06484 6.26C5.15284 6.172 5.26884 6.128 5.41284 6.128C5.54884 6.128 5.65684 6.172 5.73684 6.26C5.82484 6.34 5.86884 6.452 5.86884 6.596V10.124C6.13284 9.748 6.48084 9.448 6.91284 9.224C7.35284 8.992 7.84084 8.876 8.37684 8.876C8.99284 8.876 9.54484 9.024 10.0328 9.32C10.5208 9.608 10.9048 10.004 11.1848 10.508C11.4728 11.012 11.6168 11.58 11.6168 12.212C11.6168 12.852 11.4688 13.424 11.1728 13.928C10.8848 14.432 10.4888 14.832 9.98484 15.128C9.48084 15.416 8.90884 15.56 8.26884 15.56ZM8.26884 14.72C8.73284 14.72 9.14884 14.612 9.51684 14.396C9.88484 14.172 10.1728 13.872 10.3808 13.496C10.5968 13.12 10.7048 12.692 10.7048 12.212C10.7048 11.74 10.5968 11.316 10.3808 10.94C10.1728 10.556 9.88484 10.256 9.51684 10.04C9.14884 9.824 8.73284 9.716 8.26884 9.716C7.81284 9.716 7.40084 9.824 7.03284 10.04C6.66484 10.256 6.37684 10.556 6.16884 10.94C5.96084 11.316 5.85684 11.74 5.85684 12.212C5.85684 12.692 5.96084 13.12 6.16884 13.496C6.37684 13.872 6.66484 14.172 7.03284 14.396C7.40084 14.612 7.81284 14.72 8.26884 14.72ZM15.1692 15.188L14.4132 14.78L18.8772 9.104L19.5012 9.632L15.1692 15.188ZM14.7492 15.5C14.4692 15.5 14.3292 15.36 14.3292 15.08C14.3292 14.8 14.4692 14.66 14.7492 14.66H19.2012C19.4812 14.66 19.6212 14.8 19.6212 15.08C19.6212 15.36 19.4812 15.5 19.2012 15.5H14.7492ZM14.7012 9.776C14.4212 9.776 14.2812 9.636 14.2812 9.356C14.2812 9.076 14.4212 8.936 14.7012 8.936H19.1532C19.4332 8.936 19.5732 9.076 19.5732 9.356C19.5732 9.636 19.4332 9.776 19.1532 9.776H14.7012Z" fill="white"/>
<path d="M6.57684 15.128L6.0747 15.9928L6.0807 15.9962L6.57684 15.128ZM5.38884 13.952L4.5206 14.4481L4.52529 14.4563L4.53013 14.4645L5.38884 13.952ZM4.94484 12.26H3.94476L3.94493 12.2728L4.94484 12.26ZM5.06484 6.26L4.35774 5.55289L4.35774 5.55289L5.06484 6.26ZM5.73684 6.26L4.9969 6.93267L5.02894 6.96791L5.06417 6.99994L5.73684 6.26ZM5.86884 10.124H4.86884V13.2885L6.68726 10.6986L5.86884 10.124ZM6.91284 9.224L7.37317 10.1118L7.37925 10.1086L6.91284 9.224ZM10.0328 9.32L9.51419 10.1751L9.52459 10.1812L10.0328 9.32ZM11.1848 10.508L10.3106 10.9937L10.3166 11.0041L11.1848 10.508ZM11.1728 13.928L10.3105 13.4215L10.3046 13.4319L11.1728 13.928ZM9.98484 15.128L10.481 15.9963L10.4913 15.9903L9.98484 15.128ZM9.51684 14.396L10.023 15.2584L10.03 15.2544L10.0368 15.2502L9.51684 14.396ZM10.3808 13.496L9.51374 12.9979L9.50972 13.0049L9.50581 13.0119L10.3808 13.496ZM10.3808 10.94L9.50155 11.4163L9.50751 11.4273L9.51374 11.4381L10.3808 10.94ZM9.51684 10.04L9.01064 10.9024H9.01064L9.51684 10.04ZM7.03284 10.04L7.53904 10.9024L7.03284 10.04ZM6.16884 10.94L7.04391 11.4241L7.04814 11.4163L6.16884 10.94ZM6.16884 13.496L5.29381 13.9801H5.29381L6.16884 13.496ZM7.03284 14.396L6.5129 15.2502L6.51974 15.2544L6.52664 15.2584L7.03284 14.396ZM8.26884 14.56C7.8054 14.56 7.4146 14.455 7.07298 14.2598L6.0807 15.9962C6.74709 16.377 7.48429 16.56 8.26884 16.56V14.56ZM7.07898 14.2632C6.73091 14.0611 6.45718 13.7908 6.24756 13.4395L4.53013 14.4645C4.9125 15.1052 5.43078 15.6189 6.07471 15.9928L7.07898 14.2632ZM6.25709 13.4559C6.05955 13.1102 5.95075 12.7146 5.94476 12.2472L3.94493 12.2728C3.95493 13.0534 4.14214 13.7858 4.5206 14.4481L6.25709 13.4559ZM5.94484 12.26V6.596H3.94484V12.26H5.94484ZM5.94484 6.596C5.94484 6.61521 5.94229 6.66835 5.91659 6.74034C5.8894 6.81646 5.842 6.89706 5.77195 6.96711L4.35774 5.55289C4.04257 5.86806 3.94484 6.26274 3.94484 6.596H5.94484ZM5.77195 6.96711C5.71623 7.02283 5.6472 7.06766 5.5725 7.096C5.50056 7.12328 5.44286 7.128 5.41284 7.128V5.128C5.04872 5.128 4.66292 5.24771 4.35774 5.55289L5.77195 6.96711ZM5.41284 7.128C5.37268 7.128 5.30253 7.12131 5.21855 7.08709C5.13146 7.05161 5.05529 6.9969 4.9969 6.93267L6.47678 5.58733C6.17919 5.25998 5.78597 5.128 5.41284 5.128V7.128ZM5.06417 6.99994C4.99316 6.93539 4.93855 6.85482 4.90509 6.76965C4.8733 6.68872 4.86884 6.62511 4.86884 6.596H6.86884C6.86884 6.23463 6.74929 5.82894 6.40952 5.52006L5.06417 6.99994ZM4.86884 6.596V10.124H6.86884V6.596H4.86884ZM6.68726 10.6986C6.85334 10.4621 7.07527 10.2662 7.37316 10.1118L6.45253 8.33625C5.88641 8.62979 5.41234 9.03392 5.05043 9.54937L6.68726 10.6986ZM7.37925 10.1086C7.66446 9.95819 7.99046 9.876 8.37684 9.876V7.876C7.69123 7.876 7.04123 8.02581 6.44643 8.33943L7.37925 10.1086ZM8.37684 9.876C8.825 9.876 9.19497 9.98136 9.51423 10.175L10.5515 8.46499C9.89472 8.06664 9.16068 7.876 8.37684 7.876V9.876ZM9.52459 10.1812C9.8566 10.3771 10.1155 10.6423 10.3107 10.9936L12.059 10.0224C11.6942 9.36571 11.1851 8.83885 10.5411 8.45879L9.52459 10.1812ZM10.3166 11.0041C10.5107 11.3438 10.6168 11.7381 10.6168 12.212H12.6168C12.6168 11.4219 12.435 10.6802 12.0531 10.0119L10.3166 11.0041ZM10.6168 12.212C10.6168 12.6914 10.508 13.0855 10.3106 13.4216L12.0351 14.4344C12.4297 13.7625 12.6168 13.0126 12.6168 12.212H10.6168ZM10.3046 13.4319C10.1038 13.7832 9.83302 14.0575 9.47842 14.2657L10.4913 15.9903C11.1447 15.6065 11.6659 15.0808 12.0411 14.4241L10.3046 13.4319ZM9.48871 14.2598C9.15093 14.4528 8.75312 14.56 8.26884 14.56V16.56C9.06457 16.56 9.81075 16.3792 10.481 15.9962L9.48871 14.2598ZM8.26884 15.72C8.89476 15.72 9.48828 15.5723 10.023 15.2584L9.01064 13.5336C8.8094 13.6517 8.57092 13.72 8.26884 13.72V15.72ZM10.0368 15.2502C10.5529 14.936 10.9635 14.5086 11.2559 13.9801L9.50581 13.0119C9.38221 13.2354 9.21677 13.408 8.9969 13.5418L10.0368 15.2502ZM11.2479 13.9941C11.5601 13.4508 11.7048 12.8476 11.7048 12.212H9.70484C9.70484 12.5364 9.63359 12.7892 9.51374 12.9979L11.2479 13.9941ZM11.7048 12.212C11.7048 11.5811 11.5586 10.9827 11.2479 10.4419L9.51374 11.4381C9.63506 11.6493 9.70484 11.8989 9.70484 12.212H11.7048ZM11.2601 10.4637C10.9674 9.92335 10.5521 9.48813 10.023 9.17758L9.01064 10.9024C9.21757 11.0239 9.37825 11.1886 9.50155 11.4163L11.2601 10.4637ZM10.023 9.17758C9.48828 8.8637 8.89476 8.716 8.26884 8.716V10.716C8.57092 10.716 8.8094 10.7843 9.01064 10.9024L10.023 9.17758ZM8.26884 8.716C7.64754 8.716 7.0587 8.86529 6.52664 9.17758L7.53904 10.9024C7.74299 10.7827 7.97815 10.716 8.26884 10.716V8.716ZM6.52664 9.17758C5.99757 9.48813 5.58225 9.92335 5.28955 10.4637L7.04814 11.4163C7.17144 11.1886 7.33212 11.0239 7.53904 10.9024L6.52664 9.17758ZM5.29381 10.4559C4.99596 10.9944 4.85684 11.5877 4.85684 12.212H6.85684C6.85684 11.8923 6.92573 11.6376 7.04388 11.4241L5.29381 10.4559ZM4.85684 12.212C4.85684 12.8411 4.99459 13.4392 5.29381 13.9801L7.04388 13.0119C6.9271 12.8008 6.85684 12.5429 6.85684 12.212H4.85684ZM5.29381 13.9801C5.58621 14.5086 5.99677 14.936 6.5129 15.2502L7.55279 13.5418C7.33291 13.408 7.16748 13.2354 7.04388 13.0119L5.29381 13.9801ZM6.52664 15.2584C7.0587 15.5707 7.64754 15.72 8.26884 15.72V13.72C7.97815 13.72 7.74299 13.6533 7.53904 13.5336L6.52664 15.2584ZM15.1692 15.188L14.6943 16.068L15.4381 16.4695L15.9578 15.8029L15.1692 15.188ZM14.4132 14.78L13.6272 14.1618L12.8927 15.0957L13.9383 15.66L14.4132 14.78ZM18.8772 9.104L19.5232 8.34061L18.7319 7.67111L18.0912 8.48581L18.8772 9.104ZM19.5012 9.632L20.2898 10.2469L20.8806 9.48921L20.1472 8.86861L19.5012 9.632ZM15.6442 14.308L14.8882 13.9L13.9383 15.66L14.6943 16.068L15.6442 14.308ZM15.1992 15.3982L19.6632 9.72219L18.0912 8.48581L13.6272 14.1618L15.1992 15.3982ZM18.2313 9.86739L18.8553 10.3954L20.1472 8.86861L19.5232 8.34061L18.2313 9.86739ZM18.7126 9.01712L14.3806 14.5731L15.9578 15.8029L20.2898 10.2469L18.7126 9.01712ZM14.7492 14.5C14.7634 14.5 14.9576 14.5042 15.1413 14.6879C15.325 14.8716 15.3292 15.0659 15.3292 15.08H13.3292C13.3292 15.3741 13.4034 15.7784 13.7271 16.1021C14.0508 16.4258 14.4551 16.5 14.7492 16.5V14.5ZM15.3292 15.08C15.3292 15.0941 15.325 15.2884 15.1413 15.4721C14.9576 15.6558 14.7634 15.66 14.7492 15.66V13.66C14.4551 13.66 14.0508 13.7342 13.7271 14.0579C13.4034 14.3816 13.3292 14.7859 13.3292 15.08H15.3292ZM14.7492 15.66H19.2012V13.66H14.7492V15.66ZM19.2012 15.66C19.1871 15.66 18.9928 15.6558 18.8091 15.4721C18.6254 15.2884 18.6212 15.0941 18.6212 15.08H20.6212C20.6212 14.7859 20.547 14.3816 20.2233 14.0579C19.8996 13.7342 19.4954 13.66 19.2012 13.66V15.66ZM18.6212 15.08C18.6212 15.0659 18.6254 14.8716 18.8091 14.6879C18.9928 14.5042 19.1871 14.5 19.2012 14.5V16.5C19.4954 16.5 19.8996 16.4258 20.2233 16.1021C20.547 15.7784 20.6212 15.3741 20.6212 15.08H18.6212ZM19.2012 14.5H14.7492V16.5H19.2012V14.5ZM14.7012 8.776C14.7154 8.776 14.9096 8.78021 15.0933 8.96389C15.277 9.14757 15.2812 9.34186 15.2812 9.356H13.2812C13.2812 9.65014 13.3554 10.0544 13.6791 10.3781C14.0028 10.7018 14.4071 10.776 14.7012 10.776V8.776ZM15.2812 9.356C15.2812 9.37014 15.277 9.56443 15.0933 9.74811C14.9096 9.93179 14.7154 9.936 14.7012 9.936V7.936C14.4071 7.936 14.0028 8.01021 13.6791 8.33389C13.3554 8.65757 13.2812 9.06186 13.2812 9.356H15.2812ZM14.7012 9.936H19.1532V7.936H14.7012V9.936ZM19.1532 9.936C19.1391 9.936 18.9448 9.93179 18.7611 9.74811C18.5774 9.56443 18.5732 9.37014 18.5732 9.356H20.5732C20.5732 9.06185 20.499 8.65757 20.1753 8.33389C19.8516 8.01021 19.4474 7.936 19.1532 7.936V9.936ZM18.5732 9.356C18.5732 9.34185 18.5774 9.14757 18.7611 8.96389C18.9448 8.78021 19.1391 8.776 19.1532 8.776V10.776C19.4474 10.776 19.8516 10.7018 20.1753 10.3781C20.499 10.0544 20.5732 9.65014 20.5732 9.356H18.5732ZM19.1532 8.776H14.7012V10.776H19.1532V8.776Z" fill="white" mask="url(#path-2-outside-1_246_1850)"/>
</svg>
