<svg width="13" height="13" viewBox="0 0 13 13" fill="none" xmlns="http://www.w3.org/2000/svg">
<g clip-path="url(#clip0_195_445)">
<path d="M9 9.5C8.445 9.5 8 9.945 8 10.5C8 10.7652 8.10536 11.0196 8.29289 11.2071C8.48043 11.3946 8.73478 11.5 9 11.5C9.26522 11.5 9.51957 11.3946 9.70711 11.2071C9.89464 11.0196 10 10.7652 10 10.5C10 10.2348 9.89464 9.98043 9.70711 9.79289C9.51957 9.60536 9.26522 9.5 9 9.5ZM1 1.5V2.5H2L3.8 6.295L3.12 7.52C3.045 7.66 3 7.825 3 8C3 8.26522 3.10536 8.51957 3.29289 8.70711C3.48043 8.89464 3.73478 9 4 9H10V8H4.21C4.17685 8 4.14505 7.98683 4.12161 7.96339C4.09817 7.93995 4.085 7.90815 4.085 7.875C4.085 7.85 4.09 7.83 4.1 7.815L4.55 7H8.275C8.65 7 8.98 6.79 9.15 6.485L10.94 3.25C10.975 3.17 11 3.085 11 3C11 2.86739 10.9473 2.74021 10.8536 2.64645C10.7598 2.55268 10.6326 2.5 10.5 2.5H3.105L2.635 1.5M4 9.5C3.445 9.5 3 9.945 3 10.5C3 10.7652 3.10536 11.0196 3.29289 11.2071C3.48043 11.3946 3.73478 11.5 4 11.5C4.26522 11.5 4.51957 11.3946 4.70711 11.2071C4.89464 11.0196 5 10.7652 5 10.5C5 10.2348 4.89464 9.98043 4.70711 9.79289C4.51957 9.60536 4.26522 9.5 4 9.5Z" fill="#737980"/>
</g>
<defs>
<clipPath id="clip0_195_445">
<rect width="12" height="12" fill="white" transform="translate(0.5 0.5)"/>
</clipPath>
</defs>
</svg>
