<svg width="10" height="11" viewBox="0 0 10 11" fill="none" xmlns="http://www.w3.org/2000/svg">
<path d="M8 8.5C7.445 8.5 7 8.945 7 9.5C7 9.76522 7.10536 10.0196 7.29289 10.2071C7.48043 10.3946 7.73478 10.5 8 10.5C8.26522 10.5 8.51957 10.3946 8.70711 10.2071C8.89464 10.0196 9 9.76522 9 9.5C9 9.23478 8.89464 8.98043 8.70711 8.79289C8.51957 8.60536 8.26522 8.5 8 8.5ZM0 0.5V1.5H1L2.8 5.295L2.12 6.52C2.045 6.66 2 6.825 2 7C2 7.26522 2.10536 7.51957 2.29289 7.70711C2.48043 7.89464 2.73478 8 3 8H9V7H3.21C3.17685 7 3.14505 6.98683 3.12161 6.96339C3.09817 6.93995 3.085 6.90815 3.085 6.875C3.085 6.85 3.09 6.83 3.1 6.815L3.55 6H7.275C7.65 6 7.98 5.79 8.15 5.485L9.94 2.25C9.975 2.17 10 2.085 10 2C10 1.86739 9.94732 1.74021 9.85355 1.64645C9.75979 1.55268 9.63261 1.5 9.5 1.5H2.105L1.635 0.5M3 8.5C2.445 8.5 2 8.945 2 9.5C2 9.76522 2.10536 10.0196 2.29289 10.2071C2.48043 10.3946 2.73478 10.5 3 10.5C3.26522 10.5 3.51957 10.3946 3.70711 10.2071C3.89464 10.0196 4 9.76522 4 9.5C4 9.23478 3.89464 8.98043 3.70711 8.79289C3.51957 8.60536 3.26522 8.5 3 8.5Z" fill="#737980"/>
</svg>
