<svg width="123" height="48" viewBox="0 0 123 48" fill="none" xmlns="http://www.w3.org/2000/svg">
<rect width="123" height="48" rx="6" fill="#433DFF"/>
<mask id="path-2-outside-1_246_2070" maskUnits="userSpaceOnUse" x="11" y="11.5" width="103" height="22" fill="black">
<rect fill="white" x="11" y="11.5" width="103" height="22"/>
<path d="M14.1011 31.5C13.7491 31.5 13.4531 31.38 13.2131 31.14C12.9731 30.9 12.8531 30.604 12.8531 30.252V14.004C12.8531 13.636 12.9731 13.34 13.2131 13.116C13.4531 12.876 13.7491 12.756 14.1011 12.756H19.8371C20.9251 12.756 21.8771 12.972 22.6931 13.404C23.5251 13.82 24.1731 14.404 24.6371 15.156C25.1171 15.908 25.3571 16.772 25.3571 17.748C25.3571 18.532 25.1411 19.244 24.7091 19.884C24.2931 20.508 23.7171 21.004 22.9811 21.372C24.0371 21.628 24.8851 22.132 25.5251 22.884C26.1651 23.636 26.4851 24.62 26.4851 25.836C26.4851 26.94 26.2211 27.916 25.6931 28.764C25.1811 29.612 24.4611 30.284 23.5331 30.78C22.6051 31.26 21.5411 31.5 20.3411 31.5H14.1011ZM15.3491 29.196H20.3411C21.0771 29.196 21.7251 29.068 22.2851 28.812C22.8451 28.556 23.2851 28.18 23.6051 27.684C23.9251 27.188 24.0851 26.572 24.0851 25.836C24.0851 25.148 23.9251 24.58 23.6051 24.132C23.2851 23.684 22.8451 23.348 22.2851 23.124C21.7251 22.884 21.0771 22.764 20.3411 22.764H15.3491V29.196ZM15.3491 20.46H19.8371C20.7491 20.46 21.4931 20.236 22.0691 19.788C22.6611 19.34 22.9571 18.66 22.9571 17.748C22.9571 16.836 22.6611 16.164 22.0691 15.732C21.4931 15.284 20.7491 15.06 19.8371 15.06H15.3491V20.46ZM37.8289 31.596C36.6609 31.596 35.6129 31.308 34.6849 30.732C33.7569 30.14 33.0209 29.348 32.4769 28.356C31.9489 27.348 31.6849 26.212 31.6849 24.948C31.6849 23.684 31.9729 22.548 32.5489 21.54C33.1409 20.532 33.9329 19.74 34.9249 19.164C35.9329 18.572 37.0609 18.276 38.3089 18.276C39.5569 18.276 40.6769 18.572 41.6689 19.164C42.6609 19.74 43.4449 20.532 44.0209 21.54C44.6129 22.548 44.9089 23.684 44.9089 24.948H43.9729C43.9729 26.212 43.7009 27.348 43.1569 28.356C42.6289 29.348 41.9009 30.14 40.9729 30.732C40.0449 31.308 38.9969 31.596 37.8289 31.596ZM38.3089 29.436C39.1249 29.436 39.8529 29.244 40.4929 28.86C41.1329 28.46 41.6369 27.924 42.0049 27.252C42.3729 26.564 42.5569 25.796 42.5569 24.948C42.5569 24.084 42.3729 23.316 42.0049 22.644C41.6369 21.956 41.1329 21.42 40.4929 21.036C39.8529 20.636 39.1249 20.436 38.3089 20.436C37.5089 20.436 36.7809 20.636 36.1249 21.036C35.4849 21.42 34.9729 21.956 34.5889 22.644C34.2209 23.316 34.0369 24.084 34.0369 24.948C34.0369 25.796 34.2209 26.564 34.5889 27.252C34.9729 27.924 35.4849 28.46 36.1249 28.86C36.7809 29.244 37.5089 29.436 38.3089 29.436ZM43.6849 31.524C43.3329 31.524 43.0369 31.412 42.7969 31.188C42.5729 30.948 42.4609 30.652 42.4609 30.3V26.628L42.9169 24.084L44.9089 24.948V30.3C44.9089 30.652 44.7889 30.948 44.5489 31.188C44.3249 31.412 44.0369 31.524 43.6849 31.524ZM52.2002 31.044L50.5682 29.604L58.7282 18.828L60.3362 20.268L52.2002 31.044ZM51.4802 31.5C50.7282 31.5 50.3522 31.124 50.3522 30.372C50.3522 29.62 50.7282 29.244 51.4802 29.244H59.6642C60.4162 29.244 60.7922 29.62 60.7922 30.372C60.7922 31.124 60.4162 31.5 59.6642 31.5H51.4802ZM51.2402 20.628C50.4882 20.628 50.1122 20.252 50.1122 19.5C50.1122 18.748 50.4882 18.372 51.2402 18.372H59.4242C60.1762 18.372 60.5522 18.748 60.5522 19.5C60.5522 20.252 60.1762 20.628 59.4242 20.628H51.2402ZM71.3164 31.596C70.1484 31.596 69.1004 31.308 68.1724 30.732C67.2444 30.14 66.5084 29.348 65.9644 28.356C65.4364 27.348 65.1724 26.212 65.1724 24.948C65.1724 23.684 65.4604 22.548 66.0364 21.54C66.6284 20.532 67.4204 19.74 68.4124 19.164C69.4204 18.572 70.5484 18.276 71.7964 18.276C73.0444 18.276 74.1644 18.572 75.1564 19.164C76.1484 19.74 76.9324 20.532 77.5084 21.54C78.1004 22.548 78.3964 23.684 78.3964 24.948H77.4604C77.4604 26.212 77.1884 27.348 76.6444 28.356C76.1164 29.348 75.3884 30.14 74.4604 30.732C73.5324 31.308 72.4844 31.596 71.3164 31.596ZM71.7964 29.436C72.6124 29.436 73.3404 29.244 73.9804 28.86C74.6204 28.46 75.1244 27.924 75.4924 27.252C75.8604 26.564 76.0444 25.796 76.0444 24.948C76.0444 24.084 75.8604 23.316 75.4924 22.644C75.1244 21.956 74.6204 21.42 73.9804 21.036C73.3404 20.636 72.6124 20.436 71.7964 20.436C70.9964 20.436 70.2684 20.636 69.6124 21.036C68.9724 21.42 68.4604 21.956 68.0764 22.644C67.7084 23.316 67.5244 24.084 67.5244 24.948C67.5244 25.796 67.7084 26.564 68.0764 27.252C68.4604 27.924 68.9724 28.46 69.6124 28.86C70.2684 29.244 70.9964 29.436 71.7964 29.436ZM77.1724 31.524C76.8204 31.524 76.5244 31.412 76.2844 31.188C76.0604 30.948 75.9484 30.652 75.9484 30.3V26.628L76.4044 24.084L78.3964 24.948V30.3C78.3964 30.652 78.2764 30.948 78.0364 31.188C77.8124 31.412 77.5244 31.524 77.1724 31.524ZM89.9117 31.596C88.7437 31.596 87.6957 31.308 86.7677 30.732C85.8397 30.14 85.1037 29.348 84.5597 28.356C84.0317 27.348 83.7677 26.212 83.7677 24.948C83.7677 23.684 84.0557 22.548 84.6317 21.54C85.2237 20.532 86.0157 19.74 87.0077 19.164C88.0157 18.572 89.1437 18.276 90.3917 18.276C91.6397 18.276 92.7597 18.572 93.7517 19.164C94.7437 19.74 95.5277 20.532 96.1037 21.54C96.6957 22.548 96.9917 23.684 96.9917 24.948H96.0557C96.0557 26.212 95.7837 27.348 95.2397 28.356C94.7117 29.348 93.9837 30.14 93.0557 30.732C92.1277 31.308 91.0797 31.596 89.9117 31.596ZM90.3917 29.436C91.2077 29.436 91.9357 29.244 92.5757 28.86C93.2157 28.46 93.7197 27.924 94.0877 27.252C94.4557 26.564 94.6397 25.796 94.6397 24.948C94.6397 24.084 94.4557 23.316 94.0877 22.644C93.7197 21.956 93.2157 21.42 92.5757 21.036C91.9357 20.636 91.2077 20.436 90.3917 20.436C89.5917 20.436 88.8637 20.636 88.2077 21.036C87.5677 21.42 87.0557 21.956 86.6717 22.644C86.3037 23.316 86.1197 24.084 86.1197 24.948C86.1197 25.796 86.3037 26.564 86.6717 27.252C87.0557 27.924 87.5677 28.46 88.2077 28.86C88.8637 29.244 89.5917 29.436 90.3917 29.436ZM95.7677 31.524C95.4157 31.524 95.1197 31.412 94.8797 31.188C94.6557 30.948 94.5437 30.652 94.5437 30.3V26.628L94.9997 24.084L96.9917 24.948V30.3C96.9917 30.652 96.8717 30.948 96.6317 31.188C96.4077 31.412 96.1197 31.524 95.7677 31.524ZM104.211 23.292C104.211 22.332 104.443 21.476 104.907 20.724C105.387 19.956 106.027 19.348 106.827 18.9C107.627 18.452 108.507 18.228 109.467 18.228C110.427 18.228 111.139 18.388 111.603 18.708C112.083 19.012 112.267 19.38 112.155 19.812C112.107 20.036 112.011 20.212 111.867 20.34C111.739 20.452 111.587 20.524 111.411 20.556C111.235 20.588 111.043 20.58 110.835 20.532C109.811 20.324 108.891 20.308 108.075 20.484C107.259 20.66 106.611 20.988 106.131 21.468C105.667 21.948 105.435 22.556 105.435 23.292H104.211ZM104.235 31.5C103.851 31.5 103.555 31.404 103.347 31.212C103.139 31.004 103.035 30.7 103.035 30.3V19.572C103.035 19.188 103.139 18.892 103.347 18.684C103.555 18.476 103.851 18.372 104.235 18.372C104.635 18.372 104.931 18.476 105.123 18.684C105.331 18.876 105.435 19.172 105.435 19.572V30.3C105.435 30.684 105.331 30.98 105.123 31.188C104.931 31.396 104.635 31.5 104.235 31.5Z"/>
</mask>
<path d="M14.1011 31.5C13.7491 31.5 13.4531 31.38 13.2131 31.14C12.9731 30.9 12.8531 30.604 12.8531 30.252V14.004C12.8531 13.636 12.9731 13.34 13.2131 13.116C13.4531 12.876 13.7491 12.756 14.1011 12.756H19.8371C20.9251 12.756 21.8771 12.972 22.6931 13.404C23.5251 13.82 24.1731 14.404 24.6371 15.156C25.1171 15.908 25.3571 16.772 25.3571 17.748C25.3571 18.532 25.1411 19.244 24.7091 19.884C24.2931 20.508 23.7171 21.004 22.9811 21.372C24.0371 21.628 24.8851 22.132 25.5251 22.884C26.1651 23.636 26.4851 24.62 26.4851 25.836C26.4851 26.94 26.2211 27.916 25.6931 28.764C25.1811 29.612 24.4611 30.284 23.5331 30.78C22.6051 31.26 21.5411 31.5 20.3411 31.5H14.1011ZM15.3491 29.196H20.3411C21.0771 29.196 21.7251 29.068 22.2851 28.812C22.8451 28.556 23.2851 28.18 23.6051 27.684C23.9251 27.188 24.0851 26.572 24.0851 25.836C24.0851 25.148 23.9251 24.58 23.6051 24.132C23.2851 23.684 22.8451 23.348 22.2851 23.124C21.7251 22.884 21.0771 22.764 20.3411 22.764H15.3491V29.196ZM15.3491 20.46H19.8371C20.7491 20.46 21.4931 20.236 22.0691 19.788C22.6611 19.34 22.9571 18.66 22.9571 17.748C22.9571 16.836 22.6611 16.164 22.0691 15.732C21.4931 15.284 20.7491 15.06 19.8371 15.06H15.3491V20.46ZM37.8289 31.596C36.6609 31.596 35.6129 31.308 34.6849 30.732C33.7569 30.14 33.0209 29.348 32.4769 28.356C31.9489 27.348 31.6849 26.212 31.6849 24.948C31.6849 23.684 31.9729 22.548 32.5489 21.54C33.1409 20.532 33.9329 19.74 34.9249 19.164C35.9329 18.572 37.0609 18.276 38.3089 18.276C39.5569 18.276 40.6769 18.572 41.6689 19.164C42.6609 19.74 43.4449 20.532 44.0209 21.54C44.6129 22.548 44.9089 23.684 44.9089 24.948H43.9729C43.9729 26.212 43.7009 27.348 43.1569 28.356C42.6289 29.348 41.9009 30.14 40.9729 30.732C40.0449 31.308 38.9969 31.596 37.8289 31.596ZM38.3089 29.436C39.1249 29.436 39.8529 29.244 40.4929 28.86C41.1329 28.46 41.6369 27.924 42.0049 27.252C42.3729 26.564 42.5569 25.796 42.5569 24.948C42.5569 24.084 42.3729 23.316 42.0049 22.644C41.6369 21.956 41.1329 21.42 40.4929 21.036C39.8529 20.636 39.1249 20.436 38.3089 20.436C37.5089 20.436 36.7809 20.636 36.1249 21.036C35.4849 21.42 34.9729 21.956 34.5889 22.644C34.2209 23.316 34.0369 24.084 34.0369 24.948C34.0369 25.796 34.2209 26.564 34.5889 27.252C34.9729 27.924 35.4849 28.46 36.1249 28.86C36.7809 29.244 37.5089 29.436 38.3089 29.436ZM43.6849 31.524C43.3329 31.524 43.0369 31.412 42.7969 31.188C42.5729 30.948 42.4609 30.652 42.4609 30.3V26.628L42.9169 24.084L44.9089 24.948V30.3C44.9089 30.652 44.7889 30.948 44.5489 31.188C44.3249 31.412 44.0369 31.524 43.6849 31.524ZM52.2002 31.044L50.5682 29.604L58.7282 18.828L60.3362 20.268L52.2002 31.044ZM51.4802 31.5C50.7282 31.5 50.3522 31.124 50.3522 30.372C50.3522 29.62 50.7282 29.244 51.4802 29.244H59.6642C60.4162 29.244 60.7922 29.62 60.7922 30.372C60.7922 31.124 60.4162 31.5 59.6642 31.5H51.4802ZM51.2402 20.628C50.4882 20.628 50.1122 20.252 50.1122 19.5C50.1122 18.748 50.4882 18.372 51.2402 18.372H59.4242C60.1762 18.372 60.5522 18.748 60.5522 19.5C60.5522 20.252 60.1762 20.628 59.4242 20.628H51.2402ZM71.3164 31.596C70.1484 31.596 69.1004 31.308 68.1724 30.732C67.2444 30.14 66.5084 29.348 65.9644 28.356C65.4364 27.348 65.1724 26.212 65.1724 24.948C65.1724 23.684 65.4604 22.548 66.0364 21.54C66.6284 20.532 67.4204 19.74 68.4124 19.164C69.4204 18.572 70.5484 18.276 71.7964 18.276C73.0444 18.276 74.1644 18.572 75.1564 19.164C76.1484 19.74 76.9324 20.532 77.5084 21.54C78.1004 22.548 78.3964 23.684 78.3964 24.948H77.4604C77.4604 26.212 77.1884 27.348 76.6444 28.356C76.1164 29.348 75.3884 30.14 74.4604 30.732C73.5324 31.308 72.4844 31.596 71.3164 31.596ZM71.7964 29.436C72.6124 29.436 73.3404 29.244 73.9804 28.86C74.6204 28.46 75.1244 27.924 75.4924 27.252C75.8604 26.564 76.0444 25.796 76.0444 24.948C76.0444 24.084 75.8604 23.316 75.4924 22.644C75.1244 21.956 74.6204 21.42 73.9804 21.036C73.3404 20.636 72.6124 20.436 71.7964 20.436C70.9964 20.436 70.2684 20.636 69.6124 21.036C68.9724 21.42 68.4604 21.956 68.0764 22.644C67.7084 23.316 67.5244 24.084 67.5244 24.948C67.5244 25.796 67.7084 26.564 68.0764 27.252C68.4604 27.924 68.9724 28.46 69.6124 28.86C70.2684 29.244 70.9964 29.436 71.7964 29.436ZM77.1724 31.524C76.8204 31.524 76.5244 31.412 76.2844 31.188C76.0604 30.948 75.9484 30.652 75.9484 30.3V26.628L76.4044 24.084L78.3964 24.948V30.3C78.3964 30.652 78.2764 30.948 78.0364 31.188C77.8124 31.412 77.5244 31.524 77.1724 31.524ZM89.9117 31.596C88.7437 31.596 87.6957 31.308 86.7677 30.732C85.8397 30.14 85.1037 29.348 84.5597 28.356C84.0317 27.348 83.7677 26.212 83.7677 24.948C83.7677 23.684 84.0557 22.548 84.6317 21.54C85.2237 20.532 86.0157 19.74 87.0077 19.164C88.0157 18.572 89.1437 18.276 90.3917 18.276C91.6397 18.276 92.7597 18.572 93.7517 19.164C94.7437 19.74 95.5277 20.532 96.1037 21.54C96.6957 22.548 96.9917 23.684 96.9917 24.948H96.0557C96.0557 26.212 95.7837 27.348 95.2397 28.356C94.7117 29.348 93.9837 30.14 93.0557 30.732C92.1277 31.308 91.0797 31.596 89.9117 31.596ZM90.3917 29.436C91.2077 29.436 91.9357 29.244 92.5757 28.86C93.2157 28.46 93.7197 27.924 94.0877 27.252C94.4557 26.564 94.6397 25.796 94.6397 24.948C94.6397 24.084 94.4557 23.316 94.0877 22.644C93.7197 21.956 93.2157 21.42 92.5757 21.036C91.9357 20.636 91.2077 20.436 90.3917 20.436C89.5917 20.436 88.8637 20.636 88.2077 21.036C87.5677 21.42 87.0557 21.956 86.6717 22.644C86.3037 23.316 86.1197 24.084 86.1197 24.948C86.1197 25.796 86.3037 26.564 86.6717 27.252C87.0557 27.924 87.5677 28.46 88.2077 28.86C88.8637 29.244 89.5917 29.436 90.3917 29.436ZM95.7677 31.524C95.4157 31.524 95.1197 31.412 94.8797 31.188C94.6557 30.948 94.5437 30.652 94.5437 30.3V26.628L94.9997 24.084L96.9917 24.948V30.3C96.9917 30.652 96.8717 30.948 96.6317 31.188C96.4077 31.412 96.1197 31.524 95.7677 31.524ZM104.211 23.292C104.211 22.332 104.443 21.476 104.907 20.724C105.387 19.956 106.027 19.348 106.827 18.9C107.627 18.452 108.507 18.228 109.467 18.228C110.427 18.228 111.139 18.388 111.603 18.708C112.083 19.012 112.267 19.38 112.155 19.812C112.107 20.036 112.011 20.212 111.867 20.34C111.739 20.452 111.587 20.524 111.411 20.556C111.235 20.588 111.043 20.58 110.835 20.532C109.811 20.324 108.891 20.308 108.075 20.484C107.259 20.66 106.611 20.988 106.131 21.468C105.667 21.948 105.435 22.556 105.435 23.292H104.211ZM104.235 31.5C103.851 31.5 103.555 31.404 103.347 31.212C103.139 31.004 103.035 30.7 103.035 30.3V19.572C103.035 19.188 103.139 18.892 103.347 18.684C103.555 18.476 103.851 18.372 104.235 18.372C104.635 18.372 104.931 18.476 105.123 18.684C105.331 18.876 105.435 19.172 105.435 19.572V30.3C105.435 30.684 105.331 30.98 105.123 31.188C104.931 31.396 104.635 31.5 104.235 31.5Z" fill="white"/>
<path d="M13.2131 31.14L12.506 31.8471H12.506L13.2131 31.14ZM13.2131 13.116L13.8954 13.8471L13.908 13.8353L13.9202 13.8231L13.2131 13.116ZM22.6931 13.404L22.2252 14.2878L22.2355 14.2932L22.2459 14.2984L22.6931 13.404ZM24.6371 15.156L23.7861 15.6811L23.7901 15.6876L23.7942 15.694L24.6371 15.156ZM24.7091 19.884L23.8803 19.3245L23.8771 19.3293L24.7091 19.884ZM22.9811 21.372L22.5339 20.4776L20.0892 21.6999L22.7455 22.3438L22.9811 21.372ZM25.5251 22.884L26.2867 22.2359L25.5251 22.884ZM25.6931 28.764L24.8441 28.2354L24.8371 28.2471L25.6931 28.764ZM23.5331 30.78L23.9926 31.6683L24.0045 31.6619L23.5331 30.78ZM15.3491 29.196H14.3491V30.196H15.3491V29.196ZM22.2851 28.812L22.7009 29.7215L22.2851 28.812ZM23.6051 27.684L24.4454 28.2261L24.4454 28.2261L23.6051 27.684ZM23.6051 24.132L24.4189 23.5508L24.4189 23.5508L23.6051 24.132ZM22.2851 23.124L21.8912 24.0431L21.9024 24.0479L21.9137 24.0525L22.2851 23.124ZM15.3491 22.764V21.764H14.3491V22.764H15.3491ZM15.3491 20.46H14.3491V21.46H15.3491V20.46ZM22.0691 19.788L21.4656 18.9905L21.4552 18.9986L22.0691 19.788ZM22.0691 15.732L21.4552 16.5214L21.4673 16.5308L21.4797 16.5398L22.0691 15.732ZM15.3491 15.06V14.06H14.3491V15.06H15.3491ZM14.1011 30.5C14.0034 30.5 13.9651 30.4777 13.9202 30.4329L12.506 31.8471C12.9412 32.2823 13.4949 32.5 14.1011 32.5V30.5ZM13.9202 30.4329C13.8754 30.3881 13.8531 30.3498 13.8531 30.252H11.8531C11.8531 30.8582 12.0709 31.4119 12.506 31.8471L13.9202 30.4329ZM13.8531 30.252V14.004H11.8531V30.252H13.8531ZM13.8531 14.004C13.8531 13.9294 13.865 13.8936 13.8699 13.8817C13.8737 13.8723 13.8787 13.8626 13.8954 13.8471L12.5308 12.3849C12.0626 12.8219 11.8531 13.3959 11.8531 14.004H13.8531ZM13.9202 13.8231C13.9651 13.7783 14.0034 13.756 14.1011 13.756V11.756C13.4949 11.756 12.9412 11.9737 12.506 12.4089L13.9202 13.8231ZM14.1011 13.756H19.8371V11.756H14.1011V13.756ZM19.8371 13.756C20.7911 13.756 21.5771 13.9446 22.2252 14.2878L23.161 12.5202C22.1772 11.9994 21.0592 11.756 19.8371 11.756V13.756ZM22.2459 14.2984C22.9208 14.6358 23.425 15.0959 23.7861 15.6811L25.4882 14.6309C24.9213 13.7121 24.1295 13.0041 23.1403 12.5096L22.2459 14.2984ZM23.7942 15.694C24.1621 16.2703 24.3571 16.944 24.3571 17.748H26.3571C26.3571 16.6 26.0722 15.5457 25.48 14.618L23.7942 15.694ZM24.3571 17.748C24.3571 18.3359 24.1989 18.8525 23.8803 19.3245L25.538 20.4435C26.0833 19.6355 26.3571 18.7281 26.3571 17.748H24.3571ZM23.8771 19.3293C23.5668 19.7947 23.1298 20.1796 22.5339 20.4776L23.4283 22.2664C24.3045 21.8284 25.0194 21.2213 25.5412 20.4387L23.8771 19.3293ZM22.7455 22.3438C23.6181 22.5554 24.2741 22.957 24.7636 23.5321L26.2867 22.2359C25.4961 21.307 24.4562 20.7006 23.2167 20.4001L22.7455 22.3438ZM24.7636 23.5321C25.2164 24.0641 25.4851 24.8005 25.4851 25.836H27.4851C27.4851 24.4395 27.1139 23.2079 26.2867 22.2359L24.7636 23.5321ZM25.4851 25.836C25.4851 26.7735 25.2633 27.5624 24.8442 28.2354L26.542 29.2926C27.179 28.2696 27.4851 27.1065 27.4851 25.836H25.4851ZM24.8371 28.2471C24.4239 28.9314 23.8413 29.4814 23.0617 29.8981L24.0045 31.6619C25.081 31.0866 25.9383 30.2926 26.5492 29.2809L24.8371 28.2471ZM23.0737 29.8918C22.3075 30.2881 21.4051 30.5 20.3411 30.5V32.5C21.6771 32.5 22.9028 32.2319 23.9925 31.6682L23.0737 29.8918ZM20.3411 30.5H14.1011V32.5H20.3411V30.5ZM15.3491 30.196H20.3411V28.196H15.3491V30.196ZM20.3411 30.196C21.193 30.196 21.9874 30.0476 22.7009 29.7215L21.8694 27.9025C21.4628 28.0884 20.9613 28.196 20.3411 28.196V30.196ZM22.7009 29.7215C23.4267 29.3897 24.0173 28.8897 24.4454 28.2261L22.7648 27.1419C22.553 27.4703 22.2636 27.7223 21.8694 27.9025L22.7009 29.7215ZM24.4454 28.2261C24.8927 27.5328 25.0851 26.7169 25.0851 25.836H23.0851C23.0851 26.4271 22.9575 26.8432 22.7648 27.1419L24.4454 28.2261ZM25.0851 25.836C25.0851 24.9921 24.8873 24.2066 24.4189 23.5508L22.7914 24.7132C22.9629 24.9534 23.0851 25.3039 23.0851 25.836H25.0851ZM24.4189 23.5508C23.9771 22.9323 23.3765 22.4835 22.6565 22.1955L21.9137 24.0525C22.3137 24.2125 22.5931 24.4357 22.7914 24.7132L24.4189 23.5508ZM22.679 22.2049C21.9715 21.9016 21.185 21.764 20.3411 21.764V23.764C20.9693 23.764 21.4787 23.8664 21.8912 24.0431L22.679 22.2049ZM20.3411 21.764H15.3491V23.764H20.3411V21.764ZM14.3491 22.764V29.196H16.3491V22.764H14.3491ZM15.3491 21.46H19.8371V19.46H15.3491V21.46ZM19.8371 21.46C20.9149 21.46 21.8915 21.193 22.6831 20.5774L21.4552 18.9986C21.0947 19.279 20.5834 19.46 19.8371 19.46V21.46ZM22.6726 20.5854C23.5717 19.905 23.9571 18.8935 23.9571 17.748H21.9571C21.9571 18.4265 21.7505 18.775 21.4657 18.9906L22.6726 20.5854ZM23.9571 17.748C23.9571 16.6038 23.5717 15.5905 22.6586 14.9242L21.4797 16.5398C21.7505 16.7375 21.9571 17.0682 21.9571 17.748H23.9571ZM22.6831 14.9426C21.8915 14.327 20.9149 14.06 19.8371 14.06V16.06C20.5834 16.06 21.0947 16.241 21.4552 16.5214L22.6831 14.9426ZM19.8371 14.06H15.3491V16.06H19.8371V14.06ZM14.3491 15.06V20.46H16.3491V15.06H14.3491ZM34.6849 30.732L34.147 31.5751L34.1575 31.5816L34.6849 30.732ZM32.4769 28.356L31.591 28.82L31.5955 28.8285L31.6001 28.8368L32.4769 28.356ZM32.5489 21.54L31.6865 21.0335L31.6806 21.0439L32.5489 21.54ZM34.9249 19.164L35.427 20.0288L35.4313 20.0263L34.9249 19.164ZM41.6689 19.164L41.1564 20.0228L41.1667 20.0288L41.6689 19.164ZM44.0209 21.54L43.1526 22.0362L43.1586 22.0464L44.0209 21.54ZM44.9089 24.948V25.948H45.9089V24.948H44.9089ZM43.9729 24.948V23.948H42.9729V24.948H43.9729ZM43.1569 28.356L42.2768 27.8811L42.2741 27.8862L43.1569 28.356ZM40.9729 30.732L41.5003 31.5817L41.5107 31.5751L40.9729 30.732ZM40.4929 28.86L41.0074 29.7175L41.0152 29.7128L41.0229 29.708L40.4929 28.86ZM42.0049 27.252L42.882 27.7323L42.8867 27.7237L42.0049 27.252ZM42.0049 22.644L41.123 23.1157L41.1278 23.1243L42.0049 22.644ZM40.4929 21.036L39.9629 21.884L39.9706 21.8888L39.9784 21.8935L40.4929 21.036ZM36.1249 21.036L36.6394 21.8935L36.6455 21.8898L36.1249 21.036ZM34.5889 22.644L33.7156 22.1566L33.7118 22.1637L34.5889 22.644ZM34.5889 27.252L33.7071 27.7237L33.7137 27.736L33.7206 27.7481L34.5889 27.252ZM36.1249 28.86L35.5949 29.708L35.6072 29.7157L35.6197 29.723L36.1249 28.86ZM42.7969 31.188L42.0658 31.8703L42.0893 31.8955L42.1146 31.9191L42.7969 31.188ZM42.4609 26.628L41.4766 26.4516L41.4609 26.5391V26.628H42.4609ZM42.9169 24.084L43.3148 23.1666L42.1555 22.6638L41.9326 23.9076L42.9169 24.084ZM44.9089 24.948H45.9089V24.2917L45.3068 24.0306L44.9089 24.948ZM44.5489 31.188L45.256 31.8951L44.5489 31.188ZM37.8289 30.596C36.8338 30.596 35.9708 30.3532 35.2122 29.8824L34.1575 31.5816C35.2549 32.2628 36.488 32.596 37.8289 32.596V30.596ZM35.2227 29.8889C34.4404 29.3899 33.8193 28.7241 33.3537 27.8752L31.6001 28.8368C32.2225 29.9719 33.0734 30.8901 34.1471 31.5751L35.2227 29.8889ZM33.3627 27.892C32.9177 27.0425 32.6849 26.0686 32.6849 24.948H30.6849C30.6849 26.3554 30.98 27.6535 31.591 28.82L33.3627 27.892ZM32.6849 24.948C32.6849 23.8421 32.935 22.8798 33.4171 22.0361L31.6806 21.0439C31.0107 22.2162 30.6849 23.5259 30.6849 24.948H32.6849ZM33.4112 22.0464C33.9177 21.1839 34.5869 20.5166 35.427 20.0288L34.4227 18.2992C33.2789 18.9634 32.364 19.8801 31.6866 21.0336L33.4112 22.0464ZM35.4313 20.0263C36.2753 19.5306 37.2264 19.276 38.3089 19.276V17.276C36.8953 17.276 35.5904 17.6134 34.4185 18.3017L35.4313 20.0263ZM38.3089 19.276C39.3914 19.276 40.3318 19.5306 41.1564 20.0227L42.1813 18.3053C41.022 17.6134 39.7223 17.276 38.3089 17.276V19.276ZM41.1667 20.0288C42.0044 20.5152 42.6629 21.1792 43.1526 22.0361L44.8891 21.0439C44.2268 19.8848 43.3173 18.9648 42.171 18.2992L41.1667 20.0288ZM43.1586 22.0464C43.6531 22.8885 43.9089 23.8471 43.9089 24.948H45.9089C45.9089 23.5209 45.5726 22.2075 44.8832 21.0336L43.1586 22.0464ZM44.9089 23.948H43.9729V25.948H44.9089V23.948ZM42.9729 24.948C42.9729 26.0637 42.7342 27.0337 42.2769 27.8811L44.0369 28.8309C44.6676 27.6623 44.9729 26.3603 44.9729 24.948H42.9729ZM42.2741 27.8862C41.8253 28.7294 41.2147 29.3916 40.4351 29.8889L41.5107 31.5751C42.587 30.8884 43.4325 29.9666 44.0396 28.8258L42.2741 27.8862ZM40.4455 29.8824C39.6869 30.3532 38.824 30.596 37.8289 30.596V32.596C39.1698 32.596 40.4028 32.2628 41.5002 31.5816L40.4455 29.8824ZM38.3089 30.436C39.2887 30.436 40.1976 30.2033 41.0074 29.7175L39.9784 28.0025C39.5081 28.2847 38.9611 28.436 38.3089 28.436V30.436ZM41.0229 29.708C41.8104 29.2158 42.433 28.5522 42.882 27.7323L41.1278 26.7717C40.8408 27.2958 40.4553 27.7042 39.9629 28.012L41.0229 29.708ZM42.8867 27.7237C43.3389 26.8782 43.5569 25.9459 43.5569 24.948H41.5569C41.5569 25.6461 41.4069 26.2498 41.1231 26.7803L42.8867 27.7237ZM43.5569 24.948C43.5569 23.9379 43.3405 23.0009 42.882 22.1637L41.1278 23.1243C41.4053 23.6311 41.5569 24.2301 41.5569 24.948H43.5569ZM42.8867 22.1723C42.4374 21.3325 41.8096 20.6599 41.0074 20.1785L39.9784 21.8935C40.4561 22.1801 40.8363 22.5795 41.1231 23.1157L42.8867 22.1723ZM41.0229 20.188C40.211 19.6806 39.2965 19.436 38.3089 19.436V21.436C38.9533 21.436 39.4947 21.5914 39.9629 21.884L41.0229 20.188ZM38.3089 19.436C37.3331 19.436 36.4237 19.6825 35.6043 20.1822L36.6455 21.8898C37.138 21.5895 37.6846 21.436 38.3089 21.436V19.436ZM35.6104 20.1785C34.8121 20.6575 34.1799 21.3249 33.7157 22.1566L35.4621 23.1314C35.7658 22.5871 36.1577 22.1825 36.6394 21.8935L35.6104 20.1785ZM33.7118 22.1637C33.2533 23.0009 33.0369 23.9379 33.0369 24.948H35.0369C35.0369 24.2301 35.1885 23.6311 35.466 23.1243L33.7118 22.1637ZM33.0369 24.948C33.0369 25.9459 33.2549 26.8782 33.7071 27.7237L35.4707 26.7803C35.1869 26.2498 35.0369 25.6461 35.0369 24.948H33.0369ZM33.7206 27.7481C34.1844 28.5598 34.8111 29.2182 35.5949 29.708L36.6549 28.012C36.1586 27.7018 35.7613 27.2882 35.4571 26.7559L33.7206 27.7481ZM35.6197 29.723C36.4371 30.2015 37.341 30.436 38.3089 30.436V28.436C37.6767 28.436 37.1247 28.2865 36.6301 27.997L35.6197 29.723ZM43.6849 30.524C43.5661 30.524 43.5199 30.4949 43.4792 30.4569L42.1146 31.9191C42.5539 32.3291 43.0996 32.524 43.6849 32.524V30.524ZM43.5279 30.5057C43.49 30.465 43.4609 30.4187 43.4609 30.3H41.4609C41.4609 30.8853 41.6558 31.431 42.0658 31.8703L43.5279 30.5057ZM43.4609 30.3V26.628H41.4609V30.3H43.4609ZM43.4452 26.8044L43.9012 24.2604L41.9326 23.9076L41.4766 26.4516L43.4452 26.8044ZM42.519 25.0014L44.511 25.8654L45.3068 24.0306L43.3148 23.1666L42.519 25.0014ZM43.9089 24.948V30.3H45.9089V24.948H43.9089ZM43.9089 30.3C43.9089 30.3978 43.8866 30.4361 43.8418 30.4809L45.256 31.8951C45.6911 31.4599 45.9089 30.9062 45.9089 30.3H43.9089ZM43.8418 30.4809C43.827 30.4957 43.804 30.524 43.6849 30.524V32.524C44.2698 32.524 44.8228 32.3283 45.256 31.8951L43.8418 30.4809ZM52.2002 31.044L51.5386 31.7938L52.3479 32.508L52.9983 31.6466L52.2002 31.044ZM50.5682 29.604L49.771 29.0003L49.2109 29.74L49.9066 30.3538L50.5682 29.604ZM58.7282 18.828L59.3953 18.083L58.5864 17.3587L57.931 18.2243L58.7282 18.828ZM60.3362 20.268L61.1343 20.8706L61.6884 20.1366L61.0033 19.523L60.3362 20.268ZM52.8618 30.2942L51.2298 28.8542L49.9066 30.3538L51.5386 31.7938L52.8618 30.2942ZM51.3654 30.2077L59.5254 19.4317L57.931 18.2243L49.771 29.0003L51.3654 30.2077ZM58.0611 19.573L59.6691 21.0129L61.0033 19.523L59.3953 18.083L58.0611 19.573ZM59.5381 19.6654L51.4021 30.4414L52.9983 31.6466L61.1343 20.8706L59.5381 19.6654ZM51.4802 30.5C51.3725 30.5 51.3191 30.4862 51.3029 30.4808C51.2916 30.4771 51.3131 30.4827 51.3413 30.5109C51.3695 30.5391 51.3751 30.5606 51.3714 30.5493C51.366 30.5331 51.3522 30.4797 51.3522 30.372H49.3522C49.3522 30.9021 49.4854 31.4834 49.9271 31.9251C50.3688 32.3668 50.95 32.5 51.4802 32.5V30.5ZM51.3522 30.372C51.3522 30.2643 51.366 30.2109 51.3714 30.1947C51.3751 30.1834 51.3695 30.2049 51.3413 30.2331C51.3131 30.2613 51.2916 30.2669 51.3029 30.2632C51.3191 30.2578 51.3725 30.244 51.4802 30.244V28.244C50.95 28.244 50.3688 28.3772 49.9271 28.8189C49.4854 29.2606 49.3522 29.8419 49.3522 30.372H51.3522ZM51.4802 30.244H59.6642V28.244H51.4802V30.244ZM59.6642 30.244C59.7718 30.244 59.8253 30.2578 59.8415 30.2632C59.8528 30.2669 59.8312 30.2613 59.8031 30.2331C59.7749 30.2049 59.7692 30.1834 59.773 30.1947C59.7784 30.2109 59.7922 30.2643 59.7922 30.372H61.7922C61.7922 29.8419 61.659 29.2606 61.2173 28.8189C60.7756 28.3772 60.1943 28.244 59.6642 28.244V30.244ZM59.7922 30.372C59.7922 30.4797 59.7784 30.5331 59.773 30.5493C59.7692 30.5606 59.7749 30.5391 59.8031 30.5109C59.8312 30.4827 59.8528 30.4771 59.8415 30.4808C59.8253 30.4862 59.7718 30.5 59.6642 30.5V32.5C60.1943 32.5 60.7756 32.3668 61.2173 31.9251C61.659 31.4834 61.7922 30.9021 61.7922 30.372H59.7922ZM59.6642 30.5H51.4802V32.5H59.6642V30.5ZM51.2402 19.628C51.1325 19.628 51.0791 19.6142 51.0629 19.6088C51.0516 19.6051 51.0731 19.6107 51.1013 19.6389C51.1295 19.6671 51.1351 19.6886 51.1314 19.6773C51.126 19.6611 51.1122 19.6077 51.1122 19.5H49.1122C49.1122 20.0301 49.2454 20.6114 49.6871 21.0531C50.1288 21.4948 50.71 21.628 51.2402 21.628V19.628ZM51.1122 19.5C51.1122 19.3923 51.126 19.3389 51.1314 19.3227C51.1351 19.3114 51.1295 19.3329 51.1013 19.3611C51.0731 19.3893 51.0516 19.3949 51.0629 19.3912C51.0791 19.3858 51.1325 19.372 51.2402 19.372V17.372C50.71 17.372 50.1288 17.5052 49.6871 17.9469C49.2454 18.3886 49.1122 18.9699 49.1122 19.5H51.1122ZM51.2402 19.372H59.4242V17.372H51.2402V19.372ZM59.4242 19.372C59.5318 19.372 59.5853 19.3858 59.6015 19.3912C59.6128 19.3949 59.5912 19.3893 59.5631 19.3611C59.5349 19.3329 59.5292 19.3114 59.533 19.3227C59.5384 19.3389 59.5522 19.3923 59.5522 19.5H61.5522C61.5522 18.9699 61.419 18.3886 60.9773 17.9469C60.5356 17.5052 59.9543 17.372 59.4242 17.372V19.372ZM59.5522 19.5C59.5522 19.6077 59.5384 19.6611 59.533 19.6773C59.5292 19.6886 59.5349 19.6671 59.5631 19.6389C59.5912 19.6107 59.6128 19.6051 59.6015 19.6088C59.5853 19.6142 59.5318 19.628 59.4242 19.628V21.628C59.9543 21.628 60.5356 21.4948 60.9773 21.0531C61.419 20.6114 61.5522 20.0301 61.5522 19.5H59.5522ZM59.4242 19.628H51.2402V21.628H59.4242V19.628ZM68.1724 30.732L67.6345 31.5751L67.645 31.5816L68.1724 30.732ZM65.9644 28.356L65.0785 28.82L65.083 28.8285L65.0876 28.8368L65.9644 28.356ZM66.0364 21.54L65.174 21.0335L65.1681 21.0439L66.0364 21.54ZM68.4124 19.164L68.9145 20.0288L68.9188 20.0263L68.4124 19.164ZM75.1564 19.164L74.6439 20.0228L74.6542 20.0288L75.1564 19.164ZM77.5084 21.54L76.6401 22.0362L76.6461 22.0464L77.5084 21.54ZM78.3964 24.948V25.948H79.3964V24.948H78.3964ZM77.4604 24.948V23.948H76.4604V24.948H77.4604ZM76.6444 28.356L75.7643 27.8811L75.7616 27.8862L76.6444 28.356ZM74.4604 30.732L74.9878 31.5817L74.9982 31.5751L74.4604 30.732ZM73.9804 28.86L74.4949 29.7175L74.5027 29.7128L74.5104 29.708L73.9804 28.86ZM75.4924 27.252L76.3695 27.7323L76.3742 27.7237L75.4924 27.252ZM75.4924 22.644L74.6105 23.1157L74.6153 23.1243L75.4924 22.644ZM73.9804 21.036L73.4504 21.884L73.4581 21.8888L73.4659 21.8935L73.9804 21.036ZM69.6124 21.036L70.1269 21.8935L70.133 21.8898L69.6124 21.036ZM68.0764 22.644L67.2032 22.1566L67.1993 22.1637L68.0764 22.644ZM68.0764 27.252L67.1946 27.7237L67.2012 27.736L67.2081 27.7481L68.0764 27.252ZM69.6124 28.86L69.0824 29.708L69.0947 29.7157L69.1072 29.723L69.6124 28.86ZM76.2844 31.188L75.5533 31.8703L75.5769 31.8955L75.6021 31.9191L76.2844 31.188ZM75.9484 26.628L74.9641 26.4516L74.9484 26.5391V26.628H75.9484ZM76.4044 24.084L76.8023 23.1666L75.643 22.6638L75.4201 23.9076L76.4044 24.084ZM78.3964 24.948H79.3964V24.2917L78.7943 24.0306L78.3964 24.948ZM78.0364 31.188L78.7435 31.8951L78.0364 31.188ZM71.3164 30.596C70.3213 30.596 69.4583 30.3532 68.6997 29.8824L67.645 31.5816C68.7424 32.2628 69.9755 32.596 71.3164 32.596V30.596ZM68.7102 29.8889C67.9279 29.3899 67.3068 28.7241 66.8412 27.8752L65.0876 28.8368C65.71 29.9719 66.5609 30.8901 67.6346 31.5751L68.7102 29.8889ZM66.8502 27.892C66.4052 27.0425 66.1724 26.0686 66.1724 24.948H64.1724C64.1724 26.3554 64.4675 27.6535 65.0785 28.82L66.8502 27.892ZM66.1724 24.948C66.1724 23.8421 66.4225 22.8798 66.9046 22.0361L65.1681 21.0439C64.4982 22.2162 64.1724 23.5259 64.1724 24.948H66.1724ZM66.8987 22.0464C67.4052 21.1839 68.0744 20.5166 68.9145 20.0288L67.9102 18.2992C66.7664 18.9634 65.8515 19.8801 65.1741 21.0336L66.8987 22.0464ZM68.9188 20.0263C69.7628 19.5306 70.714 19.276 71.7964 19.276V17.276C70.3828 17.276 69.0779 17.6134 67.906 18.3017L68.9188 20.0263ZM71.7964 19.276C72.8789 19.276 73.8193 19.5306 74.6439 20.0227L75.6688 18.3053C74.5095 17.6134 73.2098 17.276 71.7964 17.276V19.276ZM74.6542 20.0288C75.4919 20.5152 76.1504 21.1792 76.6401 22.0361L78.3766 21.0439C77.7143 19.8848 76.8048 18.9648 75.6585 18.2992L74.6542 20.0288ZM76.6461 22.0464C77.1406 22.8885 77.3964 23.8471 77.3964 24.948H79.3964C79.3964 23.5209 79.0601 22.2075 78.3707 21.0336L76.6461 22.0464ZM78.3964 23.948H77.4604V25.948H78.3964V23.948ZM76.4604 24.948C76.4604 26.0637 76.2217 27.0337 75.7644 27.8811L77.5244 28.8309C78.1551 27.6623 78.4604 26.3603 78.4604 24.948H76.4604ZM75.7616 27.8862C75.3128 28.7294 74.7022 29.3916 73.9226 29.8889L74.9982 31.5751C76.0745 30.8884 76.92 29.9666 77.5271 28.8258L75.7616 27.8862ZM73.933 29.8824C73.1744 30.3532 72.3115 30.596 71.3164 30.596V32.596C72.6573 32.596 73.8903 32.2628 74.9877 31.5816L73.933 29.8824ZM71.7964 30.436C72.7762 30.436 73.6851 30.2033 74.4949 29.7175L73.4659 28.0025C72.9956 28.2847 72.4486 28.436 71.7964 28.436V30.436ZM74.5104 29.708C75.298 29.2158 75.9205 28.5522 76.3695 27.7323L74.6153 26.7717C74.3283 27.2958 73.9428 27.7042 73.4504 28.012L74.5104 29.708ZM76.3742 27.7237C76.8264 26.8782 77.0444 25.9459 77.0444 24.948H75.0444C75.0444 25.6461 74.8944 26.2498 74.6106 26.7803L76.3742 27.7237ZM77.0444 24.948C77.0444 23.9379 76.828 23.0009 76.3695 22.1637L74.6153 23.1243C74.8928 23.6311 75.0444 24.2301 75.0444 24.948H77.0444ZM76.3742 22.1723C75.9249 21.3325 75.2971 20.6599 74.4949 20.1785L73.4659 21.8935C73.9436 22.1801 74.3238 22.5795 74.6106 23.1157L76.3742 22.1723ZM74.5104 20.188C73.6985 19.6806 72.784 19.436 71.7964 19.436V21.436C72.4408 21.436 72.9822 21.5914 73.4504 21.884L74.5104 20.188ZM71.7964 19.436C70.8206 19.436 69.9112 19.6825 69.0918 20.1822L70.133 21.8898C70.6255 21.5895 71.1721 21.436 71.7964 21.436V19.436ZM69.0979 20.1785C68.2996 20.6575 67.6674 21.3249 67.2032 22.1566L68.9496 23.1314C69.2533 22.5871 69.6452 22.1825 70.1269 21.8935L69.0979 20.1785ZM67.1993 22.1637C66.7408 23.0009 66.5244 23.9379 66.5244 24.948H68.5244C68.5244 24.2301 68.676 23.6311 68.9535 23.1243L67.1993 22.1637ZM66.5244 24.948C66.5244 25.9459 66.7424 26.8782 67.1946 27.7237L68.9582 26.7803C68.6744 26.2498 68.5244 25.6461 68.5244 24.948H66.5244ZM67.2081 27.7481C67.6719 28.5598 68.2986 29.2182 69.0824 29.708L70.1424 28.012C69.6461 27.7018 69.2488 27.2882 68.9446 26.7559L67.2081 27.7481ZM69.1072 29.723C69.9246 30.2015 70.8285 30.436 71.7964 30.436V28.436C71.1642 28.436 70.6122 28.2865 70.1176 27.997L69.1072 29.723ZM77.1724 30.524C77.0536 30.524 77.0074 30.4949 76.9667 30.4569L75.6021 31.9191C76.0414 32.3291 76.5871 32.524 77.1724 32.524V30.524ZM77.0154 30.5057C76.9775 30.465 76.9484 30.4187 76.9484 30.3H74.9484C74.9484 30.8853 75.1433 31.431 75.5533 31.8703L77.0154 30.5057ZM76.9484 30.3V26.628H74.9484V30.3H76.9484ZM76.9327 26.8044L77.3887 24.2604L75.4201 23.9076L74.9641 26.4516L76.9327 26.8044ZM76.0065 25.0014L77.9985 25.8654L78.7943 24.0306L76.8023 23.1666L76.0065 25.0014ZM77.3964 24.948V30.3H79.3964V24.948H77.3964ZM77.3964 30.3C77.3964 30.3978 77.3741 30.4361 77.3293 30.4809L78.7435 31.8951C79.1786 31.4599 79.3964 30.9062 79.3964 30.3H77.3964ZM77.3293 30.4809C77.3145 30.4957 77.2915 30.524 77.1724 30.524V32.524C77.7573 32.524 78.3103 32.3283 78.7435 31.8951L77.3293 30.4809ZM86.7677 30.732L86.2298 31.5751L86.2403 31.5816L86.7677 30.732ZM84.5597 28.356L83.6739 28.82L83.6783 28.8285L83.6829 28.8368L84.5597 28.356ZM84.6317 21.54L83.7693 21.0335L83.7634 21.0439L84.6317 21.54ZM87.0077 19.164L87.5098 20.0288L87.5141 20.0263L87.0077 19.164ZM93.7517 19.164L93.2392 20.0228L93.2495 20.0288L93.7517 19.164ZM96.1037 21.54L95.2354 22.0362L95.2414 22.0464L96.1037 21.54ZM96.9917 24.948V25.948H97.9917V24.948H96.9917ZM96.0557 24.948V23.948H95.0557V24.948H96.0557ZM95.2397 28.356L94.3596 27.8811L94.3569 27.8862L95.2397 28.356ZM93.0557 30.732L93.5831 31.5817L93.5935 31.5751L93.0557 30.732ZM92.5757 28.86L93.0902 29.7175L93.098 29.7128L93.1057 29.708L92.5757 28.86ZM94.0877 27.252L94.9648 27.7323L94.9695 27.7237L94.0877 27.252ZM94.0877 22.644L93.2059 23.1157L93.2106 23.1243L94.0877 22.644ZM92.5757 21.036L92.0457 21.884L92.0534 21.8888L92.0612 21.8935L92.5757 21.036ZM88.2077 21.036L88.7222 21.8935L88.7283 21.8898L88.2077 21.036ZM86.6717 22.644L85.7985 22.1566L85.7946 22.1637L86.6717 22.644ZM86.6717 27.252L85.7899 27.7237L85.7965 27.736L85.8034 27.7481L86.6717 27.252ZM88.2077 28.86L87.6777 29.708L87.69 29.7157L87.7025 29.723L88.2077 28.86ZM94.8797 31.188L94.1486 31.8703L94.1722 31.8955L94.1974 31.9191L94.8797 31.188ZM94.5437 26.628L93.5594 26.4516L93.5437 26.5391V26.628H94.5437ZM94.9997 24.084L95.3976 23.1666L94.2383 22.6638L94.0154 23.9076L94.9997 24.084ZM96.9917 24.948H97.9917V24.2917L97.3896 24.0306L96.9917 24.948ZM96.6317 31.188L97.3388 31.8951L96.6317 31.188ZM89.9117 30.596C88.9166 30.596 88.0536 30.3532 87.2951 29.8824L86.2403 31.5816C87.3377 32.2628 88.5708 32.596 89.9117 32.596V30.596ZM87.3055 29.8889C86.5232 29.3899 85.9021 28.7241 85.4365 27.8752L83.6829 28.8368C84.3053 29.9719 85.1562 30.8901 86.2299 31.5751L87.3055 29.8889ZM85.4455 27.892C85.0005 27.0425 84.7677 26.0686 84.7677 24.948H82.7677C82.7677 26.3554 83.0629 27.6535 83.6739 28.82L85.4455 27.892ZM84.7677 24.948C84.7677 23.8421 85.0178 22.8798 85.4999 22.0361L83.7634 21.0439C83.0935 22.2162 82.7677 23.5259 82.7677 24.948H84.7677ZM85.494 22.0464C86.0005 21.1839 86.6697 20.5166 87.5098 20.0288L86.5056 18.2992C85.3617 18.9634 84.4469 19.8801 83.7694 21.0336L85.494 22.0464ZM87.5141 20.0263C88.3582 19.5306 89.3093 19.276 90.3917 19.276V17.276C88.9781 17.276 87.6732 17.6134 86.5013 18.3017L87.5141 20.0263ZM90.3917 19.276C91.4743 19.276 92.4146 19.5306 93.2392 20.0227L94.2641 18.3053C93.1048 17.6134 91.8051 17.276 90.3917 17.276V19.276ZM93.2495 20.0288C94.0872 20.5152 94.7458 21.1792 95.2354 22.0361L96.9719 21.0439C96.3096 19.8848 95.4001 18.9648 94.2538 18.2992L93.2495 20.0288ZM95.2414 22.0464C95.7359 22.8885 95.9917 23.8471 95.9917 24.948H97.9917C97.9917 23.5209 97.6554 22.2075 96.966 21.0336L95.2414 22.0464ZM96.9917 23.948H96.0557V25.948H96.9917V23.948ZM95.0557 24.948C95.0557 26.0637 94.817 27.0337 94.3597 27.8811L96.1197 28.8309C96.7504 27.6623 97.0557 26.3603 97.0557 24.948H95.0557ZM94.3569 27.8862C93.9081 28.7294 93.2975 29.3916 92.5179 29.8889L93.5935 31.5751C94.6698 30.8884 95.5153 29.9666 96.1224 28.8258L94.3569 27.8862ZM92.5283 29.8824C91.7697 30.3532 90.9068 30.596 89.9117 30.596V32.596C91.2526 32.596 92.4856 32.2628 93.583 31.5816L92.5283 29.8824ZM90.3917 30.436C91.3715 30.436 92.2804 30.2033 93.0902 29.7175L92.0612 28.0025C91.5909 28.2847 91.0439 28.436 90.3917 28.436V30.436ZM93.1057 29.708C93.8933 29.2158 94.5158 28.5522 94.9648 27.7323L93.2106 26.7717C92.9236 27.2958 92.5381 27.7042 92.0457 28.012L93.1057 29.708ZM94.9695 27.7237C95.4217 26.8782 95.6397 25.9459 95.6397 24.948H93.6397C93.6397 25.6461 93.4897 26.2498 93.2059 26.7803L94.9695 27.7237ZM95.6397 24.948C95.6397 23.9379 95.4233 23.0009 94.9648 22.1637L93.2106 23.1243C93.4881 23.6311 93.6397 24.2301 93.6397 24.948H95.6397ZM94.9695 22.1723C94.5202 21.3325 93.8924 20.6599 93.0902 20.1785L92.0612 21.8935C92.5389 22.1801 92.9192 22.5795 93.2059 23.1157L94.9695 22.1723ZM93.1057 20.188C92.2939 19.6806 91.3793 19.436 90.3917 19.436V21.436C91.0361 21.436 91.5775 21.5914 92.0457 21.884L93.1057 20.188ZM90.3917 19.436C89.4159 19.436 88.5065 19.6825 87.6871 20.1822L88.7283 21.8898C89.2208 21.5895 89.7674 21.436 90.3917 21.436V19.436ZM87.6932 20.1785C86.8949 20.6575 86.2627 21.3249 85.7985 22.1566L87.5449 23.1314C87.8486 22.5871 88.2405 22.1825 88.7222 21.8935L87.6932 20.1785ZM85.7946 22.1637C85.3361 23.0009 85.1197 23.9379 85.1197 24.948H87.1197C87.1197 24.2301 87.2713 23.6311 87.5488 23.1243L85.7946 22.1637ZM85.1197 24.948C85.1197 25.9459 85.3377 26.8782 85.7899 27.7237L87.5535 26.7803C87.2697 26.2498 87.1197 25.6461 87.1197 24.948H85.1197ZM85.8034 27.7481C86.2672 28.5598 86.8939 29.2182 87.6777 29.708L88.7377 28.012C88.2414 27.7018 87.8441 27.2882 87.5399 26.7559L85.8034 27.7481ZM87.7025 29.723C88.5199 30.2015 89.4238 30.436 90.3917 30.436V28.436C89.7596 28.436 89.2075 28.2865 88.7129 27.997L87.7025 29.723ZM95.7677 30.524C95.6489 30.524 95.6027 30.4949 95.562 30.4569L94.1974 31.9191C94.6367 32.3291 95.1824 32.524 95.7677 32.524V30.524ZM95.6107 30.5057C95.5728 30.465 95.5437 30.4187 95.5437 30.3H93.5437C93.5437 30.8853 93.7386 31.431 94.1486 31.8703L95.6107 30.5057ZM95.5437 30.3V26.628H93.5437V30.3H95.5437ZM95.528 26.8044L95.984 24.2604L94.0154 23.9076L93.5594 26.4516L95.528 26.8044ZM94.6018 25.0014L96.5938 25.8654L97.3896 24.0306L95.3976 23.1666L94.6018 25.0014ZM95.9917 24.948V30.3H97.9917V24.948H95.9917ZM95.9917 30.3C95.9917 30.3978 95.9694 30.4361 95.9246 30.4809L97.3388 31.8951C97.774 31.4599 97.9917 30.9062 97.9917 30.3H95.9917ZM95.9246 30.4809C95.9098 30.4957 95.8868 30.524 95.7677 30.524V32.524C96.3526 32.524 96.9056 32.3283 97.3388 31.8951L95.9246 30.4809ZM104.211 23.292H103.211V24.292H104.211V23.292ZM104.907 20.724L104.059 20.194L104.056 20.1989L104.907 20.724ZM106.827 18.9L106.338 18.0275V18.0275L106.827 18.9ZM111.603 18.708L111.035 19.5312L111.051 19.5423L111.068 19.5528L111.603 18.708ZM112.155 19.812L111.187 19.561L111.182 19.5816L111.177 19.6025L112.155 19.812ZM111.867 20.34L112.526 21.0926L112.531 21.0874L111.867 20.34ZM111.411 20.556L111.232 19.5721L111.411 20.556ZM110.835 20.532L111.06 19.5576L111.047 19.5546L111.034 19.552L110.835 20.532ZM106.131 21.468L105.424 20.7609L105.418 20.7669L105.412 20.773L106.131 21.468ZM105.435 23.292V24.292H106.435V23.292H105.435ZM103.347 31.212L102.64 31.9191L102.654 31.9332L102.669 31.9468L103.347 31.212ZM103.347 18.684L104.054 19.3911L103.347 18.684ZM105.123 18.684L104.388 19.3623L104.415 19.3917L104.445 19.4188L105.123 18.684ZM105.123 31.188L104.416 30.4809L104.402 30.495L104.388 30.5097L105.123 31.188ZM105.211 23.292C105.211 22.5008 105.4 21.8297 105.758 21.2491L104.056 20.1989C103.486 21.1223 103.211 22.1632 103.211 23.292H105.211ZM105.755 21.254C106.145 20.6304 106.66 20.1394 107.316 19.7725L106.338 18.0275C105.394 18.5566 104.629 19.2816 104.059 20.194L105.755 21.254ZM107.316 19.7725C107.959 19.4121 108.67 19.228 109.467 19.228V17.228C108.344 17.228 107.295 17.4919 106.338 18.0275L107.316 19.7725ZM109.467 19.228C110.352 19.228 110.819 19.382 111.035 19.5312L112.171 17.8848C111.459 17.394 110.502 17.228 109.467 17.228V19.228ZM111.068 19.5528C111.136 19.5962 111.176 19.6302 111.196 19.6509C111.216 19.6707 111.214 19.6743 111.207 19.6592C111.198 19.6422 111.19 19.6172 111.188 19.5896C111.185 19.5634 111.189 19.5518 111.187 19.561L113.123 20.063C113.234 19.6344 113.205 19.184 112.995 18.7648C112.797 18.3674 112.476 18.077 112.138 17.8632L111.068 19.5528ZM111.177 19.6025C111.171 19.6335 111.165 19.6407 111.169 19.6331C111.171 19.6294 111.175 19.6231 111.181 19.6154C111.187 19.6076 111.195 19.5998 111.203 19.5926L112.531 21.0874C112.863 20.7928 113.049 20.4131 113.133 20.0215L111.177 19.6025ZM111.208 19.5874C111.21 19.5857 111.213 19.5833 111.217 19.5808C111.221 19.5782 111.225 19.576 111.229 19.5743C111.237 19.5704 111.239 19.5708 111.232 19.5721L111.59 21.5399C111.934 21.4773 112.254 21.3299 112.526 21.0926L111.208 19.5874ZM111.232 19.5721C111.213 19.5756 111.16 19.5808 111.06 19.5576L110.61 21.5064C110.926 21.5792 111.257 21.6004 111.59 21.5399L111.232 19.5721ZM111.034 19.552C109.908 19.3232 108.845 19.295 107.864 19.5065L108.286 21.4615C108.937 21.321 109.714 21.3248 110.636 21.512L111.034 19.552ZM107.864 19.5065C106.904 19.7137 106.068 20.1166 105.424 20.7609L106.838 22.1751C107.154 21.8594 107.614 21.6063 108.286 21.4615L107.864 19.5065ZM105.412 20.773C104.749 21.4593 104.435 22.3257 104.435 23.292H106.435C106.435 22.7863 106.585 22.4367 106.85 22.163L105.412 20.773ZM105.435 22.292H104.211V24.292H105.435V22.292ZM104.235 30.5C104.124 30.5 104.062 30.4859 104.034 30.4768C104.009 30.4689 104.013 30.4658 104.025 30.4772L102.669 31.9468C103.119 32.3623 103.691 32.5 104.235 32.5V30.5ZM104.054 30.5049C104.068 30.5185 104.066 30.5255 104.059 30.5043C104.05 30.4784 104.035 30.4157 104.035 30.3H102.035C102.035 30.8673 102.185 31.4641 102.64 31.9191L104.054 30.5049ZM104.035 30.3V19.572H102.035V30.3H104.035ZM104.035 19.572C104.035 19.4685 104.049 19.4142 104.056 19.3935C104.062 19.3772 104.063 19.3822 104.054 19.3911L102.64 17.9769C102.192 18.4246 102.035 19.0071 102.035 19.572H104.035ZM104.054 19.3911C104.045 19.4 104.04 19.3992 104.056 19.3935C104.077 19.3862 104.132 19.372 104.235 19.372V17.372C103.67 17.372 103.088 17.5291 102.64 17.9769L104.054 19.3911ZM104.235 19.372C104.352 19.372 104.409 19.3876 104.426 19.3935C104.436 19.3973 104.415 19.3908 104.388 19.3623L105.858 18.0057C105.409 17.5195 104.796 17.372 104.235 17.372V19.372ZM104.445 19.4188C104.416 19.3924 104.41 19.3706 104.414 19.3815C104.419 19.3983 104.435 19.4553 104.435 19.572H106.435C106.435 19.011 106.287 18.398 105.801 17.9492L104.445 19.4188ZM104.435 19.572V30.3H106.435V19.572H104.435ZM104.435 30.3C104.435 30.4035 104.421 30.4578 104.414 30.4785C104.408 30.4948 104.407 30.4898 104.416 30.4809L105.83 31.8951C106.278 31.4474 106.435 30.8649 106.435 30.3H104.435ZM104.388 30.5097C104.415 30.4811 104.436 30.4747 104.426 30.4785C104.409 30.4844 104.352 30.5 104.235 30.5V32.5C104.796 32.5 105.409 32.3525 105.858 31.8663L104.388 30.5097Z" fill="white" mask="url(#path-2-outside-1_246_2070)"/>
</svg>
