<svg width="166" height="33" viewBox="0 0 166 33" fill="none" xmlns="http://www.w3.org/2000/svg">
<mask id="path-1-outside-1_640_2850" maskUnits="userSpaceOnUse" x="0" y="-0.5" width="166" height="33" fill="black">
<rect fill="white" y="-0.5" width="166" height="33"/>
<path d="M3.5922 30.5C3.1362 30.5 2.7522 30.38 2.4402 30.14C2.1522 29.876 2.0082 29.528 2.0082 29.096V3.788C2.0082 3.38 2.1402 3.044 2.4042 2.78C2.6682 2.516 3.0042 2.384 3.4122 2.384H12.1602C13.6002 2.384 14.8962 2.696 16.0482 3.32C17.2242 3.92 18.1482 4.748 18.8202 5.804C19.5162 6.86 19.8642 8.084 19.8642 9.476C19.8642 10.772 19.5162 11.924 18.8202 12.932C18.1242 13.94 17.2122 14.708 16.0842 15.236C17.6922 15.668 18.9882 16.484 19.9722 17.684C20.9562 18.86 21.4482 20.36 21.4482 22.184C21.4482 23.816 21.0762 25.256 20.3322 26.504C19.5882 27.752 18.5562 28.736 17.2362 29.456C15.9402 30.152 14.4522 30.5 12.7722 30.5H3.5922ZM4.8162 27.8H12.7722C13.9242 27.8 14.9442 27.572 15.8322 27.116C16.7202 26.66 17.4162 26.012 17.9202 25.172C18.4242 24.332 18.6762 23.336 18.6762 22.184C18.6762 21.104 18.4242 20.168 17.9202 19.376C17.4162 18.56 16.7202 17.936 15.8322 17.504C14.9442 17.048 13.9242 16.82 12.7722 16.82H4.8162V27.8ZM4.8162 14.12H12.1602C13.6002 14.12 14.7882 13.712 15.7242 12.896C16.6602 12.08 17.1282 10.94 17.1282 9.476C17.1282 8.036 16.6602 6.944 15.7242 6.2C14.7882 5.456 13.6002 5.084 12.1602 5.084H4.8162V14.12ZM28.0016 30.5C27.4496 30.5 27.0536 30.272 26.8136 29.816C26.5736 29.36 26.5496 28.916 26.7416 28.484L37.3256 3.356C37.5896 2.708 38.0456 2.384 38.6936 2.384C39.3176 2.384 39.7616 2.708 40.0256 3.356L50.6456 28.52C50.8616 28.976 50.8256 29.42 50.5376 29.852C50.2736 30.284 49.8896 30.5 49.3856 30.5C49.0976 30.5 48.8336 30.428 48.5936 30.284C48.3776 30.14 48.1976 29.924 48.0536 29.636L38.1536 5.624H39.2696L29.2976 29.636C29.1776 29.924 28.9976 30.14 28.7576 30.284C28.5416 30.428 28.2896 30.5 28.0016 30.5ZM30.3776 23.804L31.4576 21.392H46.0736L47.1536 23.804H30.3776ZM58.0301 30.5C57.6221 30.5 57.2861 30.368 57.0221 30.104C56.7821 29.84 56.6501 29.54 56.6261 29.204C56.6021 28.844 56.6981 28.52 56.9141 28.232L75.5261 4.904H58.1741C57.7421 4.904 57.4061 4.796 57.1661 4.58C56.9261 4.364 56.8061 4.064 56.8061 3.68C56.8061 3.32 56.9381 3.02 57.2021 2.78C57.4661 2.516 57.8021 2.384 58.2101 2.384H77.7221C78.1541 2.384 78.4901 2.516 78.7301 2.78C78.9701 3.044 79.1021 3.356 79.1261 3.716C79.1741 4.052 79.0901 4.34 78.8741 4.58L60.1901 27.98H77.7221C78.1061 27.98 78.4301 28.1 78.6941 28.34C78.9821 28.556 79.1261 28.856 79.1261 29.24C79.1261 29.6 78.9821 29.9 78.6941 30.14C78.4301 30.38 78.1061 30.5 77.7221 30.5H58.0301ZM86.5649 30.5C86.0129 30.5 85.6169 30.272 85.3769 29.816C85.1369 29.36 85.1129 28.916 85.3049 28.484L95.8889 3.356C96.1529 2.708 96.6089 2.384 97.2569 2.384C97.8809 2.384 98.3249 2.708 98.5889 3.356L109.209 28.52C109.425 28.976 109.389 29.42 109.101 29.852C108.837 30.284 108.453 30.5 107.949 30.5C107.661 30.5 107.397 30.428 107.157 30.284C106.941 30.14 106.761 29.924 106.617 29.636L96.7169 5.624H97.8329L87.8609 29.636C87.7409 29.924 87.5609 30.14 87.3209 30.284C87.1049 30.428 86.8529 30.5 86.5649 30.5ZM88.9409 23.804L90.0209 21.392H104.637L105.717 23.804H88.9409ZM115.477 30.5C114.925 30.5 114.529 30.272 114.289 29.816C114.049 29.36 114.025 28.916 114.217 28.484L124.801 3.356C125.065 2.708 125.521 2.384 126.169 2.384C126.793 2.384 127.237 2.708 127.501 3.356L138.121 28.52C138.337 28.976 138.301 29.42 138.013 29.852C137.749 30.284 137.365 30.5 136.861 30.5C136.573 30.5 136.309 30.428 136.069 30.284C135.853 30.14 135.673 29.924 135.529 29.636L125.629 5.624H126.745L116.773 29.636C116.653 29.924 116.473 30.14 116.233 30.284C116.017 30.428 115.765 30.5 115.477 30.5ZM117.853 23.804L118.933 21.392H133.549L134.629 23.804H117.853ZM147.342 30.5C146.934 30.5 146.598 30.368 146.334 30.104C146.07 29.84 145.938 29.504 145.938 29.096V3.788C145.938 3.38 146.07 3.044 146.334 2.78C146.598 2.516 146.934 2.384 147.342 2.384H154.074C155.826 2.384 157.386 2.756 158.754 3.5C160.122 4.22 161.19 5.24 161.958 6.56C162.75 7.856 163.146 9.356 163.146 11.06C163.146 12.692 162.75 14.144 161.958 15.416C161.19 16.688 160.122 17.684 158.754 18.404C157.386 19.124 155.826 19.484 154.074 19.484H148.746V29.096C148.746 29.504 148.614 29.84 148.35 30.104C148.086 30.368 147.75 30.5 147.342 30.5ZM162.39 30.5C162.078 30.5 161.826 30.44 161.634 30.32C161.466 30.2 161.31 30.02 161.166 29.78L154.254 18.764L157.062 18.044L163.506 28.34C163.866 28.916 163.926 29.42 163.686 29.852C163.47 30.284 163.038 30.5 162.39 30.5ZM148.746 16.784H154.074C155.298 16.784 156.378 16.544 157.314 16.064C158.274 15.56 159.03 14.876 159.582 14.012C160.134 13.148 160.41 12.164 160.41 11.06C160.41 9.884 160.134 8.852 159.582 7.964C159.03 7.052 158.274 6.344 157.314 5.84C156.378 5.336 155.298 5.084 154.074 5.084H148.746V16.784Z"/>
</mask>
<path d="M3.5922 30.5C3.1362 30.5 2.7522 30.38 2.4402 30.14C2.1522 29.876 2.0082 29.528 2.0082 29.096V3.788C2.0082 3.38 2.1402 3.044 2.4042 2.78C2.6682 2.516 3.0042 2.384 3.4122 2.384H12.1602C13.6002 2.384 14.8962 2.696 16.0482 3.32C17.2242 3.92 18.1482 4.748 18.8202 5.804C19.5162 6.86 19.8642 8.084 19.8642 9.476C19.8642 10.772 19.5162 11.924 18.8202 12.932C18.1242 13.94 17.2122 14.708 16.0842 15.236C17.6922 15.668 18.9882 16.484 19.9722 17.684C20.9562 18.86 21.4482 20.36 21.4482 22.184C21.4482 23.816 21.0762 25.256 20.3322 26.504C19.5882 27.752 18.5562 28.736 17.2362 29.456C15.9402 30.152 14.4522 30.5 12.7722 30.5H3.5922ZM4.8162 27.8H12.7722C13.9242 27.8 14.9442 27.572 15.8322 27.116C16.7202 26.66 17.4162 26.012 17.9202 25.172C18.4242 24.332 18.6762 23.336 18.6762 22.184C18.6762 21.104 18.4242 20.168 17.9202 19.376C17.4162 18.56 16.7202 17.936 15.8322 17.504C14.9442 17.048 13.9242 16.82 12.7722 16.82H4.8162V27.8ZM4.8162 14.12H12.1602C13.6002 14.12 14.7882 13.712 15.7242 12.896C16.6602 12.08 17.1282 10.94 17.1282 9.476C17.1282 8.036 16.6602 6.944 15.7242 6.2C14.7882 5.456 13.6002 5.084 12.1602 5.084H4.8162V14.12ZM28.0016 30.5C27.4496 30.5 27.0536 30.272 26.8136 29.816C26.5736 29.36 26.5496 28.916 26.7416 28.484L37.3256 3.356C37.5896 2.708 38.0456 2.384 38.6936 2.384C39.3176 2.384 39.7616 2.708 40.0256 3.356L50.6456 28.52C50.8616 28.976 50.8256 29.42 50.5376 29.852C50.2736 30.284 49.8896 30.5 49.3856 30.5C49.0976 30.5 48.8336 30.428 48.5936 30.284C48.3776 30.14 48.1976 29.924 48.0536 29.636L38.1536 5.624H39.2696L29.2976 29.636C29.1776 29.924 28.9976 30.14 28.7576 30.284C28.5416 30.428 28.2896 30.5 28.0016 30.5ZM30.3776 23.804L31.4576 21.392H46.0736L47.1536 23.804H30.3776ZM58.0301 30.5C57.6221 30.5 57.2861 30.368 57.0221 30.104C56.7821 29.84 56.6501 29.54 56.6261 29.204C56.6021 28.844 56.6981 28.52 56.9141 28.232L75.5261 4.904H58.1741C57.7421 4.904 57.4061 4.796 57.1661 4.58C56.9261 4.364 56.8061 4.064 56.8061 3.68C56.8061 3.32 56.9381 3.02 57.2021 2.78C57.4661 2.516 57.8021 2.384 58.2101 2.384H77.7221C78.1541 2.384 78.4901 2.516 78.7301 2.78C78.9701 3.044 79.1021 3.356 79.1261 3.716C79.1741 4.052 79.0901 4.34 78.8741 4.58L60.1901 27.98H77.7221C78.1061 27.98 78.4301 28.1 78.6941 28.34C78.9821 28.556 79.1261 28.856 79.1261 29.24C79.1261 29.6 78.9821 29.9 78.6941 30.14C78.4301 30.38 78.1061 30.5 77.7221 30.5H58.0301ZM86.5649 30.5C86.0129 30.5 85.6169 30.272 85.3769 29.816C85.1369 29.36 85.1129 28.916 85.3049 28.484L95.8889 3.356C96.1529 2.708 96.6089 2.384 97.2569 2.384C97.8809 2.384 98.3249 2.708 98.5889 3.356L109.209 28.52C109.425 28.976 109.389 29.42 109.101 29.852C108.837 30.284 108.453 30.5 107.949 30.5C107.661 30.5 107.397 30.428 107.157 30.284C106.941 30.14 106.761 29.924 106.617 29.636L96.7169 5.624H97.8329L87.8609 29.636C87.7409 29.924 87.5609 30.14 87.3209 30.284C87.1049 30.428 86.8529 30.5 86.5649 30.5ZM88.9409 23.804L90.0209 21.392H104.637L105.717 23.804H88.9409ZM115.477 30.5C114.925 30.5 114.529 30.272 114.289 29.816C114.049 29.36 114.025 28.916 114.217 28.484L124.801 3.356C125.065 2.708 125.521 2.384 126.169 2.384C126.793 2.384 127.237 2.708 127.501 3.356L138.121 28.52C138.337 28.976 138.301 29.42 138.013 29.852C137.749 30.284 137.365 30.5 136.861 30.5C136.573 30.5 136.309 30.428 136.069 30.284C135.853 30.14 135.673 29.924 135.529 29.636L125.629 5.624H126.745L116.773 29.636C116.653 29.924 116.473 30.14 116.233 30.284C116.017 30.428 115.765 30.5 115.477 30.5ZM117.853 23.804L118.933 21.392H133.549L134.629 23.804H117.853ZM147.342 30.5C146.934 30.5 146.598 30.368 146.334 30.104C146.07 29.84 145.938 29.504 145.938 29.096V3.788C145.938 3.38 146.07 3.044 146.334 2.78C146.598 2.516 146.934 2.384 147.342 2.384H154.074C155.826 2.384 157.386 2.756 158.754 3.5C160.122 4.22 161.19 5.24 161.958 6.56C162.75 7.856 163.146 9.356 163.146 11.06C163.146 12.692 162.75 14.144 161.958 15.416C161.19 16.688 160.122 17.684 158.754 18.404C157.386 19.124 155.826 19.484 154.074 19.484H148.746V29.096C148.746 29.504 148.614 29.84 148.35 30.104C148.086 30.368 147.75 30.5 147.342 30.5ZM162.39 30.5C162.078 30.5 161.826 30.44 161.634 30.32C161.466 30.2 161.31 30.02 161.166 29.78L154.254 18.764L157.062 18.044L163.506 28.34C163.866 28.916 163.926 29.42 163.686 29.852C163.47 30.284 163.038 30.5 162.39 30.5ZM148.746 16.784H154.074C155.298 16.784 156.378 16.544 157.314 16.064C158.274 15.56 159.03 14.876 159.582 14.012C160.134 13.148 160.41 12.164 160.41 11.06C160.41 9.884 160.134 8.852 159.582 7.964C159.03 7.052 158.274 6.344 157.314 5.84C156.378 5.336 155.298 5.084 154.074 5.084H148.746V16.784Z" fill="#005BFF"/>
<path d="M2.4402 30.14L1.08875 31.6143L1.15237 31.6726L1.22078 31.7252L2.4402 30.14ZM2.4042 2.78L3.81842 4.19421L3.81842 4.19421L2.4042 2.78ZM16.0482 3.32L15.0956 5.07858L15.1173 5.09032L15.1393 5.10152L16.0482 3.32ZM18.8202 5.804L17.1329 6.87775L17.1415 6.89126L17.1503 6.90462L18.8202 5.804ZM18.8202 12.932L17.1744 11.7956L17.1744 11.7956L18.8202 12.932ZM16.0842 15.236L15.2363 13.4246L10.276 15.7465L15.5653 17.1675L16.0842 15.236ZM19.9722 17.684L18.4257 18.9522L18.432 18.9598L18.4383 18.9674L19.9722 17.684ZM20.3322 26.504L18.6143 25.4799L18.6143 25.4799L20.3322 26.504ZM17.2362 29.456L18.1825 31.218L18.1939 31.2118L17.2362 29.456ZM4.8162 27.8H2.8162V29.8H4.8162V27.8ZM17.9202 25.172L19.6352 26.201L19.6352 26.201L17.9202 25.172ZM17.9202 19.376L16.2186 20.427L16.2257 20.4384L16.2329 20.4497L17.9202 19.376ZM15.8322 17.504L14.9186 19.2831L14.9378 19.293L14.9573 19.3025L15.8322 17.504ZM4.8162 16.82V14.82H2.8162V16.82H4.8162ZM4.8162 14.12H2.8162V16.12H4.8162V14.12ZM15.7242 12.896L14.4099 11.3885L14.4099 11.3885L15.7242 12.896ZM15.7242 6.2L14.4797 7.76565L14.4797 7.76565L15.7242 6.2ZM4.8162 5.084V3.084H2.8162V5.084H4.8162ZM3.5922 28.5C3.53996 28.5 3.53384 28.4933 3.55875 28.501C3.57086 28.5048 3.58744 28.5112 3.60655 28.5211C3.62572 28.531 3.64376 28.5426 3.65963 28.5548L1.22078 31.7252C1.93608 32.2755 2.768 32.5 3.5922 32.5V28.5ZM3.79165 28.6657C3.85476 28.7235 3.92032 28.8102 3.96424 28.9163C4.00623 29.0178 4.0082 29.0879 4.0082 29.096H0.00820318C0.00820318 30.0227 0.341263 30.9291 1.08875 31.6143L3.79165 28.6657ZM4.0082 29.096V3.788H0.00820318V29.096H4.0082ZM4.0082 3.788C4.0082 3.80191 4.00536 3.868 3.96871 3.9613C3.93068 4.05809 3.87407 4.13856 3.81842 4.19421L0.989992 1.36578C0.314266 2.04151 0.00820318 2.90375 0.00820318 3.788H4.0082ZM3.81842 4.19421C3.76276 4.24986 3.68229 4.30648 3.58551 4.3445C3.49221 4.38116 3.42612 4.384 3.4122 4.384V0.383999C2.52795 0.383999 1.66571 0.690061 0.989991 1.36578L3.81842 4.19421ZM3.4122 4.384H12.1602V0.383999H3.4122V4.384ZM12.1602 4.384C13.3012 4.384 14.2644 4.62833 15.0956 5.07858L17.0008 1.56141C15.528 0.763667 13.8992 0.383999 12.1602 0.383999V4.384ZM15.1393 5.10152C16.0154 5.54854 16.6632 6.13962 17.1329 6.87775L20.5075 4.73025C19.6332 3.35637 18.433 2.29146 16.9571 1.53847L15.1393 5.10152ZM17.1503 6.90462C17.6095 7.60134 17.8642 8.43431 17.8642 9.476H21.8642C21.8642 7.73368 21.4229 6.11865 20.4901 4.70337L17.1503 6.90462ZM17.8642 9.476C17.8642 10.3909 17.626 11.1416 17.1744 11.7956L20.466 14.0684C21.4064 12.7064 21.8642 11.1531 21.8642 9.476H17.8642ZM17.1744 11.7956C16.6834 12.5068 16.0489 13.0443 15.2363 13.4246L16.9321 17.0474C18.3755 16.3717 19.565 15.3732 20.466 14.0684L17.1744 11.7956ZM15.5653 17.1675C16.801 17.4995 17.7262 18.0992 18.4257 18.9522L21.5187 16.4158C20.2502 14.8688 18.5834 13.8365 16.6031 13.3045L15.5653 17.1675ZM18.4383 18.9674C19.0665 19.7181 19.4482 20.7362 19.4482 22.184H23.4482C23.4482 19.9838 22.8459 18.0019 21.5061 16.4006L18.4383 18.9674ZM19.4482 22.184C19.4482 23.5009 19.1517 24.5785 18.6143 25.4799L22.0501 27.5281C23.0007 25.9335 23.4482 24.1311 23.4482 22.184H19.4482ZM18.6143 25.4799C18.0602 26.4093 17.2956 27.1454 16.2785 27.7002L18.1939 31.2118C19.8168 30.3266 21.1162 29.0947 22.0501 27.5281L18.6143 25.4799ZM16.2899 27.694C15.3239 28.2128 14.1693 28.5 12.7722 28.5V32.5C14.7351 32.5 16.5565 32.0912 18.1825 31.218L16.2899 27.694ZM12.7722 28.5H3.5922V32.5H12.7722V28.5ZM4.8162 29.8H12.7722V25.8H4.8162V29.8ZM12.7722 29.8C14.1928 29.8 15.5345 29.5172 16.7458 28.8951L14.9186 25.3369C14.3539 25.6268 13.6556 25.8 12.7722 25.8V29.8ZM16.7458 28.8951C17.959 28.2721 18.9354 27.3673 19.6352 26.201L16.2052 24.143C15.897 24.6567 15.4814 25.0479 14.9186 25.3369L16.7458 28.8951ZM19.6352 26.201C20.3563 24.9992 20.6762 23.634 20.6762 22.184H16.6762C16.6762 23.038 16.4921 23.6648 16.2052 24.143L19.6352 26.201ZM20.6762 22.184C20.6762 20.7822 20.345 19.4612 19.6075 18.3022L16.2329 20.4497C16.5034 20.8748 16.6762 21.4258 16.6762 22.184H20.6762ZM19.6218 18.325C18.9125 17.1766 17.9253 16.2982 16.7071 15.7055L14.9573 19.3025C15.5151 19.5738 15.9199 19.9434 16.2186 20.427L19.6218 18.325ZM16.7458 15.7249C15.5345 15.1028 14.1928 14.82 12.7722 14.82V18.82C13.6556 18.82 14.3539 18.9932 14.9186 19.2831L16.7458 15.7249ZM12.7722 14.82H4.8162V18.82H12.7722V14.82ZM2.8162 16.82V27.8H6.8162V16.82H2.8162ZM4.8162 16.12H12.1602V12.12H4.8162V16.12ZM12.1602 16.12C14.0016 16.12 15.681 15.587 17.0385 14.4035L14.4099 11.3885C13.8954 11.837 13.1988 12.12 12.1602 12.12V16.12ZM17.0385 14.4035C18.4892 13.1388 19.1282 11.4041 19.1282 9.476H15.1282C15.1282 10.4759 14.8312 11.0212 14.4099 11.3885L17.0385 14.4035ZM19.1282 9.476C19.1282 7.56468 18.4808 5.83629 16.9687 4.63435L14.4797 7.76565C14.8396 8.0517 15.1282 8.50732 15.1282 9.476H19.1282ZM16.9687 4.63435C15.6107 3.5549 13.9566 3.084 12.1602 3.084V7.084C13.2438 7.084 13.9657 7.35709 14.4797 7.76565L16.9687 4.63435ZM12.1602 3.084H4.8162V7.084H12.1602V3.084ZM2.8162 5.084V14.12H6.8162V5.084H2.8162ZM26.8136 29.816L25.0438 30.7475L25.0438 30.7475L26.8136 29.816ZM26.7416 28.484L28.5692 29.2963L28.5772 29.2784L28.5848 29.2604L26.7416 28.484ZM37.3256 3.356L39.1688 4.13235L39.1734 4.1215L39.1778 4.11059L37.3256 3.356ZM40.0256 3.356L38.1734 4.11059L38.1781 4.12215L38.183 4.13365L40.0256 3.356ZM50.6456 28.52L48.803 29.2976L48.8197 29.3373L48.8381 29.3762L50.6456 28.52ZM50.5376 29.852L48.8735 28.7426L48.8516 28.7754L48.831 28.8091L50.5376 29.852ZM48.5936 30.284L47.4842 31.9481L47.5238 31.9745L47.5646 31.999L48.5936 30.284ZM48.0536 29.636L46.2046 30.3983L46.2323 30.4655L46.2648 30.5304L48.0536 29.636ZM38.1536 5.624V3.624H35.1657L36.3046 6.38633L38.1536 5.624ZM39.2696 5.624L41.1167 6.39107L42.2658 3.624H39.2696V5.624ZM29.2976 29.636L31.1438 30.4052L31.1447 30.4031L29.2976 29.636ZM28.7576 30.284L27.7286 28.569L27.6878 28.5935L27.6482 28.6199L28.7576 30.284ZM30.3776 23.804L28.5522 22.9867L27.2907 25.804H30.3776V23.804ZM31.4576 21.392V19.392H30.1618L29.6322 20.5747L31.4576 21.392ZM46.0736 21.392L47.899 20.5747L47.3694 19.392H46.0736V21.392ZM47.1536 23.804V25.804H50.2405L48.979 22.9867L47.1536 23.804ZM28.0016 28.5C28.0008 28.5 28.0313 28.4999 28.0845 28.5127C28.1396 28.5259 28.2111 28.5512 28.2885 28.5958C28.4591 28.6939 28.5503 28.8216 28.5834 28.8845L25.0438 30.7475C25.3169 31.2664 25.7261 31.7361 26.2927 32.0622C26.8516 32.3841 27.4481 32.5 28.0016 32.5V28.5ZM28.5834 28.8845C28.5764 28.8712 28.6069 28.9251 28.6127 29.033C28.6188 29.1467 28.5934 29.242 28.5692 29.2963L24.914 27.6717C24.4488 28.7185 24.5481 29.8056 25.0438 30.7475L28.5834 28.8845ZM28.5848 29.2604L39.1688 4.13235L35.4824 2.57965L24.8984 27.7076L28.5848 29.2604ZM39.1778 4.11059C39.2023 4.05051 39.1751 4.15005 39.024 4.25736C38.9519 4.30862 38.8757 4.34359 38.8068 4.36381C38.7405 4.38328 38.6985 4.384 38.6936 4.384V0.383999C38.0224 0.383999 37.3251 0.557619 36.7072 0.996639C36.1002 1.42795 35.7129 2.01349 35.4734 2.60141L39.1778 4.11059ZM38.6936 4.384C38.6758 4.384 38.6228 4.38152 38.5472 4.35862C38.4693 4.33498 38.3888 4.29591 38.3157 4.24258C38.1659 4.13329 38.1437 4.03773 38.1734 4.11059L41.8778 2.60141C41.6435 2.02626 41.2673 1.44471 40.6735 1.01142C40.0639 0.566546 39.3696 0.383999 38.6936 0.383999V4.384ZM38.183 4.13365L48.803 29.2976L52.4882 27.7424L41.8682 2.57835L38.183 4.13365ZM48.8381 29.3762C48.8162 29.3299 48.7732 29.2055 48.7872 29.0334C48.8009 28.8643 48.8604 28.7623 48.8735 28.7426L52.2017 30.9614C52.8656 29.9656 52.9804 28.777 52.4531 27.6638L48.8381 29.3762ZM48.831 28.8091C48.8504 28.7775 48.9233 28.678 49.0711 28.5948C49.2193 28.5115 49.3442 28.5 49.3856 28.5V32.5C50.5902 32.5 51.6189 31.9181 52.2442 30.8949L48.831 28.8091ZM49.3856 28.5C49.41 28.5 49.4496 28.5033 49.4978 28.5165C49.5465 28.5297 49.5892 28.549 49.6226 28.569L47.5646 31.999C48.1248 32.3351 48.7462 32.5 49.3856 32.5V28.5ZM49.703 28.6199C49.8385 28.7102 49.8678 28.7923 49.8425 28.7416L46.2648 30.5304C46.5274 31.0557 46.9167 31.5698 47.4842 31.9481L49.703 28.6199ZM49.9026 28.8737L40.0026 4.86166L36.3046 6.38633L46.2046 30.3983L49.9026 28.8737ZM38.1536 7.624H39.2696V3.624H38.1536V7.624ZM37.4226 4.85693L27.4506 28.8689L31.1447 30.4031L41.1167 6.39107L37.4226 4.85693ZM27.4515 28.8668C27.4602 28.8459 27.4847 28.7954 27.5362 28.7336C27.5891 28.6701 27.6554 28.6129 27.7286 28.569L29.7866 31.999C30.4348 31.6101 30.8792 31.0402 31.1438 30.4052L27.4515 28.8668ZM27.6482 28.6199C27.714 28.576 27.7862 28.5432 27.8572 28.523C27.9265 28.5031 27.978 28.5 28.0016 28.5V32.5C28.6396 32.5 29.287 32.3348 29.867 31.9481L27.6482 28.6199ZM32.203 24.6213L33.283 22.2093L29.6322 20.5747L28.5522 22.9867L32.203 24.6213ZM31.4576 23.392H46.0736V19.392H31.4576V23.392ZM44.2482 22.2093L45.3282 24.6213L48.979 22.9867L47.899 20.5747L44.2482 22.2093ZM47.1536 21.804H30.3776V25.804H47.1536V21.804ZM57.0221 30.104L55.5422 31.4493L55.5742 31.4846L55.6079 31.5182L57.0221 30.104ZM56.6261 29.204L54.6305 29.337L54.6312 29.3465L56.6261 29.204ZM56.9141 28.232L55.3507 26.9847L55.3321 27.0081L55.3141 27.032L56.9141 28.232ZM75.5261 4.904L77.0895 6.15133L79.6803 2.904H75.5261V4.904ZM57.1661 4.58L58.504 3.09341L58.504 3.09341L57.1661 4.58ZM57.2021 2.78L58.5475 4.25988L58.5827 4.22787L58.6163 4.19421L57.2021 2.78ZM79.1261 3.716L77.1305 3.84904L77.1356 3.92424L77.1462 3.99885L79.1261 3.716ZM78.8741 4.58L77.3875 3.24207L77.348 3.28595L77.3112 3.33208L78.8741 4.58ZM60.1901 27.98L58.6272 26.7321L56.0339 29.98H60.1901V27.98ZM78.6941 28.34L77.3488 29.8199L77.4186 29.8834L77.4941 29.94L78.6941 28.34ZM78.6941 30.14L77.4137 28.6036L77.3806 28.6311L77.3488 28.6601L78.6941 30.14ZM58.0301 28.5C58.044 28.5 58.1101 28.5028 58.2034 28.5395C58.3002 28.5775 58.3807 28.6341 58.4363 28.6898L55.6079 31.5182C56.2836 32.1939 57.1459 32.5 58.0301 32.5V28.5ZM58.502 28.7587C58.5145 28.7724 58.5454 28.8111 58.5737 28.8755C58.6027 28.9413 58.6171 29.0072 58.621 29.0615L54.6312 29.3465C54.6891 30.1574 55.0197 30.8745 55.5422 31.4493L58.502 28.7587ZM58.6217 29.071C58.6244 29.1114 58.6215 29.1789 58.5977 29.2592C58.5739 29.3395 58.5393 29.3984 58.5141 29.432L55.3141 27.032C54.8104 27.7037 54.5748 28.5008 54.6305 29.337L58.6217 29.071ZM58.4775 29.4793L77.0895 6.15133L73.9627 3.65667L55.3507 26.9847L58.4775 29.4793ZM75.5261 2.904H58.1741V6.904H75.5261V2.904ZM58.1741 2.904C58.1211 2.904 58.1418 2.89698 58.2101 2.91894C58.2856 2.9432 58.3954 2.99561 58.504 3.09341L55.8282 6.06659C56.5445 6.71129 57.4176 6.904 58.1741 6.904V2.904ZM58.504 3.09341C58.6119 3.19048 58.6994 3.31601 58.7531 3.45022C58.8036 3.57647 58.8061 3.66453 58.8061 3.68H54.8061C54.8061 4.5138 55.0869 5.39941 55.8282 6.06659L58.504 3.09341ZM58.8061 3.68C58.8061 3.74984 58.792 3.86262 58.7357 3.99048C58.6793 4.11876 58.6041 4.20839 58.5475 4.25988L55.8568 1.30012C55.1715 1.92304 54.8061 2.7623 54.8061 3.68H58.8061ZM58.6163 4.19421C58.5607 4.24986 58.4802 4.30648 58.3834 4.3445C58.2901 4.38116 58.224 4.384 58.2101 4.384V0.383999C57.3259 0.383999 56.4636 0.690061 55.7879 1.36578L58.6163 4.19421ZM58.2101 4.384H77.7221V0.383999H58.2101V4.384ZM77.7221 4.384C77.7359 4.384 77.6727 4.38609 77.5668 4.3445C77.4525 4.29958 77.3393 4.22336 77.2502 4.12534L80.21 1.43465C79.5122 0.667105 78.5889 0.383999 77.7221 0.383999V4.384ZM77.2502 4.12534C77.2266 4.09937 77.1937 4.05388 77.1672 3.99128C77.1408 3.92894 77.1324 3.87698 77.1305 3.84904L81.1217 3.58296C81.068 2.77773 80.7576 2.03698 80.21 1.43465L77.2502 4.12534ZM77.1462 3.99885C77.1352 3.92192 77.1315 3.78729 77.1791 3.624C77.2276 3.45779 77.3101 3.32814 77.3875 3.24207L80.3607 5.91793C80.9958 5.21223 81.2329 4.3214 81.106 3.43315L77.1462 3.99885ZM77.3112 3.33208L58.6272 26.7321L61.753 29.2279L80.437 5.82792L77.3112 3.33208ZM60.1901 29.98H77.7221V25.98H60.1901V29.98ZM77.7221 29.98C77.7033 29.98 77.6422 29.9765 77.5585 29.9455C77.4724 29.9136 77.4 29.8665 77.3488 29.8199L80.0395 26.8601C79.3778 26.2586 78.5623 25.98 77.7221 25.98V29.98ZM77.4941 29.94C77.4025 29.8713 77.2933 29.7555 77.2151 29.5925C77.1389 29.4337 77.1261 29.3015 77.1261 29.24H81.1261C81.1261 28.2753 80.7236 27.3621 79.8941 26.74L77.4941 29.94ZM77.1261 29.24C77.1261 29.1453 77.147 29.0113 77.2151 28.8695C77.282 28.7301 77.3654 28.6439 77.4137 28.6036L79.9745 31.6764C80.6968 31.0745 81.1261 30.2212 81.1261 29.24H77.1261ZM77.3488 28.6601C77.4 28.6135 77.4724 28.5664 77.5585 28.5345C77.6422 28.5035 77.7033 28.5 77.7221 28.5V32.5C78.5623 32.5 79.3778 32.2214 80.0395 31.6199L77.3488 28.6601ZM77.7221 28.5H58.0301V32.5H77.7221V28.5ZM85.3769 29.816L83.6071 30.7475L83.6071 30.7475L85.3769 29.816ZM85.3049 28.484L87.1325 29.2963L87.1405 29.2784L87.1481 29.2604L85.3049 28.484ZM95.8889 3.356L97.7321 4.13235L97.7366 4.1215L97.7411 4.11059L95.8889 3.356ZM98.5889 3.356L96.7367 4.11059L96.7414 4.12215L96.7463 4.13365L98.5889 3.356ZM109.209 28.52L107.366 29.2976L107.383 29.3373L107.401 29.3762L109.209 28.52ZM109.101 29.852L107.437 28.7426L107.415 28.7754L107.394 28.8091L109.101 29.852ZM107.157 30.284L106.047 31.9481L106.087 31.9745L106.128 31.999L107.157 30.284ZM106.617 29.636L104.768 30.3983L104.796 30.4655L104.828 30.5304L106.617 29.636ZM96.7169 5.624V3.624H93.729L94.8679 6.38633L96.7169 5.624ZM97.8329 5.624L99.6799 6.39107L100.829 3.624H97.8329V5.624ZM87.8609 29.636L89.707 30.4052L89.7079 30.4031L87.8609 29.636ZM87.3209 30.284L86.2919 28.569L86.2511 28.5935L86.2115 28.6199L87.3209 30.284ZM88.9409 23.804L87.1155 22.9867L85.854 25.804H88.9409V23.804ZM90.0209 21.392V19.392H88.7251L88.1955 20.5747L90.0209 21.392ZM104.637 21.392L106.462 20.5747L105.933 19.392H104.637V21.392ZM105.717 23.804V25.804H108.804L107.542 22.9867L105.717 23.804ZM86.5649 28.5C86.5641 28.5 86.5945 28.4999 86.6478 28.5127C86.7028 28.5259 86.7744 28.5512 86.8518 28.5958C87.0224 28.6939 87.1136 28.8216 87.1467 28.8845L83.6071 30.7475C83.8802 31.2664 84.2894 31.7361 84.856 32.0622C85.4149 32.3841 86.0114 32.5 86.5649 32.5V28.5ZM87.1467 28.8845C87.1397 28.8712 87.1701 28.9251 87.176 29.033C87.1821 29.1467 87.1566 29.242 87.1325 29.2963L83.4773 27.6717C83.012 28.7185 83.1113 29.8056 83.6071 30.7475L87.1467 28.8845ZM87.1481 29.2604L97.7321 4.13235L94.0457 2.57965L83.4617 27.7076L87.1481 29.2604ZM97.7411 4.11059C97.7656 4.05051 97.7383 4.15005 97.5873 4.25736C97.5152 4.30862 97.439 4.34359 97.3701 4.36381C97.3038 4.38328 97.2618 4.384 97.2569 4.384V0.383999C96.5857 0.383999 95.8884 0.557619 95.2705 0.996639C94.6635 1.42795 94.2762 2.01349 94.0367 2.60141L97.7411 4.11059ZM97.2569 4.384C97.2391 4.384 97.186 4.38152 97.1105 4.35862C97.0326 4.33498 96.952 4.29591 96.879 4.24258C96.7292 4.13329 96.707 4.03773 96.7367 4.11059L100.441 2.60141C100.207 2.02626 99.8306 1.44471 99.2368 1.01142C98.6272 0.566546 97.9329 0.383999 97.2569 0.383999V4.384ZM96.7463 4.13365L107.366 29.2976L111.052 27.7424L100.432 2.57835L96.7463 4.13365ZM107.401 29.3762C107.38 29.3299 107.336 29.2055 107.35 29.0334C107.364 28.8643 107.424 28.7623 107.437 28.7426L110.765 30.9614C111.429 29.9656 111.544 28.777 111.016 27.6638L107.401 29.3762ZM107.394 28.8091C107.414 28.7775 107.487 28.678 107.634 28.5948C107.783 28.5115 107.908 28.5 107.949 28.5V32.5C109.153 32.5 110.182 31.9181 110.807 30.8949L107.394 28.8091ZM107.949 28.5C107.973 28.5 108.013 28.5033 108.061 28.5165C108.11 28.5297 108.153 28.549 108.186 28.569L106.128 31.999C106.688 32.3351 107.309 32.5 107.949 32.5V28.5ZM108.266 28.6199C108.402 28.7102 108.431 28.7923 108.406 28.7416L104.828 30.5304C105.091 31.0557 105.48 31.5698 106.047 31.9481L108.266 28.6199ZM108.466 28.8737L98.5659 4.86166L94.8679 6.38633L104.768 30.3983L108.466 28.8737ZM96.7169 7.624H97.8329V3.624H96.7169V7.624ZM95.9858 4.85693L86.0138 28.8689L89.7079 30.4031L99.6799 6.39107L95.9858 4.85693ZM86.0147 28.8668C86.0234 28.8459 86.048 28.7954 86.0995 28.7336C86.1524 28.6701 86.2187 28.6129 86.2919 28.569L88.3499 31.999C88.9981 31.6101 89.4425 31.0402 89.707 30.4052L86.0147 28.8668ZM86.2115 28.6199C86.2773 28.576 86.3495 28.5432 86.4205 28.523C86.4898 28.5031 86.5412 28.5 86.5649 28.5V32.5C87.2029 32.5 87.8503 32.3348 88.4303 31.9481L86.2115 28.6199ZM90.7663 24.6213L91.8463 22.2093L88.1955 20.5747L87.1155 22.9867L90.7663 24.6213ZM90.0209 23.392H104.637V19.392H90.0209V23.392ZM102.812 22.2093L103.892 24.6213L107.542 22.9867L106.462 20.5747L102.812 22.2093ZM105.717 21.804H88.9409V25.804H105.717V21.804ZM114.289 29.816L112.52 30.7475L112.52 30.7475L114.289 29.816ZM114.217 28.484L116.045 29.2963L116.053 29.2784L116.061 29.2604L114.217 28.484ZM124.801 3.356L126.645 4.13235L126.649 4.1215L126.654 4.11059L124.801 3.356ZM127.501 3.356L125.649 4.11059L125.654 4.12215L125.659 4.13365L127.501 3.356ZM138.121 28.52L136.279 29.2976L136.295 29.3373L136.314 29.3762L138.121 28.52ZM138.013 29.852L136.349 28.7426L136.327 28.7754L136.307 28.8091L138.013 29.852ZM136.069 30.284L134.96 31.9481L135 31.9745L135.04 31.999L136.069 30.284ZM135.529 29.636L133.68 30.3983L133.708 30.4655L133.741 30.5304L135.529 29.636ZM125.629 5.624V3.624H122.641L123.78 6.38633L125.629 5.624ZM126.745 5.624L128.592 6.39107L129.742 3.624H126.745V5.624ZM116.773 29.636L118.62 30.4052L118.62 30.4031L116.773 29.636ZM116.233 30.284L115.204 28.569L115.164 28.5935L115.124 28.6199L116.233 30.284ZM117.853 23.804L116.028 22.9867L114.767 25.804H117.853V23.804ZM118.933 21.392V19.392H117.638L117.108 20.5747L118.933 21.392ZM133.549 21.392L135.375 20.5747L134.845 19.392H133.549V21.392ZM134.629 23.804V25.804H137.716L136.455 22.9867L134.629 23.804ZM115.477 28.5C115.477 28.5 115.507 28.4999 115.56 28.5127C115.615 28.5259 115.687 28.5512 115.764 28.5958C115.935 28.6939 116.026 28.8216 116.059 28.8845L112.52 30.7475C112.793 31.2664 113.202 31.7361 113.768 32.0622C114.327 32.3841 114.924 32.5 115.477 32.5V28.5ZM116.059 28.8845C116.052 28.8712 116.083 28.9251 116.088 29.033C116.095 29.1467 116.069 29.242 116.045 29.2963L112.39 27.6717C111.925 28.7185 112.024 29.8056 112.52 30.7475L116.059 28.8845ZM116.061 29.2604L126.645 4.13235L122.958 2.57965L112.374 27.7076L116.061 29.2604ZM126.654 4.11059C126.678 4.05051 126.651 4.15005 126.5 4.25736C126.428 4.30862 126.352 4.34359 126.283 4.36381C126.216 4.38328 126.174 4.384 126.169 4.384V0.383999C125.498 0.383999 124.801 0.557619 124.183 0.996639C123.576 1.42795 123.189 2.01349 122.949 2.60141L126.654 4.11059ZM126.169 4.384C126.152 4.384 126.099 4.38152 126.023 4.35862C125.945 4.33498 125.865 4.29591 125.791 4.24258C125.642 4.13329 125.62 4.03773 125.649 4.11059L129.354 2.60141C129.119 2.02626 128.743 1.44471 128.149 1.01142C127.54 0.566546 126.845 0.383999 126.169 0.383999V4.384ZM125.659 4.13365L136.279 29.2976L139.964 27.7424L129.344 2.57835L125.659 4.13365ZM136.314 29.3762C136.292 29.3299 136.249 29.2055 136.263 29.0334C136.277 28.8643 136.336 28.7623 136.349 28.7426L139.677 30.9614C140.341 29.9656 140.456 28.777 139.929 27.6638L136.314 29.3762ZM136.307 28.8091C136.326 28.7775 136.399 28.678 136.547 28.5948C136.695 28.5115 136.82 28.5 136.861 28.5V32.5C138.066 32.5 139.095 31.9181 139.72 30.8949L136.307 28.8091ZM136.861 28.5C136.886 28.5 136.925 28.5033 136.974 28.5165C137.022 28.5297 137.065 28.549 137.098 28.569L135.04 31.999C135.601 32.3351 136.222 32.5 136.861 32.5V28.5ZM137.179 28.6199C137.314 28.7102 137.344 28.7923 137.318 28.7416L133.741 30.5304C134.003 31.0557 134.393 31.5698 134.96 31.9481L137.179 28.6199ZM137.378 28.8737L127.478 4.86166L123.78 6.38633L133.68 30.3983L137.378 28.8737ZM125.629 7.624H126.745V3.624H125.629V7.624ZM124.898 4.85693L114.926 28.8689L118.62 30.4031L128.592 6.39107L124.898 4.85693ZM114.927 28.8668C114.936 28.8459 114.96 28.7954 115.012 28.7336C115.065 28.6701 115.131 28.6129 115.204 28.569L117.262 31.999C117.911 31.6101 118.355 31.0402 118.62 30.4052L114.927 28.8668ZM115.124 28.6199C115.19 28.576 115.262 28.5432 115.333 28.523C115.402 28.5031 115.454 28.5 115.477 28.5V32.5C116.115 32.5 116.763 32.3348 117.343 31.9481L115.124 28.6199ZM119.679 24.6213L120.759 22.2093L117.108 20.5747L116.028 22.9867L119.679 24.6213ZM118.933 23.392H133.549V19.392H118.933V23.392ZM131.724 22.2093L132.804 24.6213L136.455 22.9867L135.375 20.5747L131.724 22.2093ZM134.629 21.804H117.853V25.804H134.629V21.804ZM146.334 30.104L147.748 28.6898L147.748 28.6898L146.334 30.104ZM146.334 2.78L147.748 4.19421L147.748 4.19421L146.334 2.78ZM158.754 3.5L157.798 5.25697L157.81 5.26348L157.822 5.26983L158.754 3.5ZM161.958 6.56L160.229 7.56579L160.24 7.58446L160.251 7.6029L161.958 6.56ZM161.958 15.416L160.26 14.3589L160.253 14.3705L160.246 14.3823L161.958 15.416ZM158.754 18.404L159.685 20.1738L159.685 20.1738L158.754 18.404ZM148.746 19.484V17.484H146.746V19.484H148.746ZM148.35 30.104L149.764 31.5182L149.764 31.5182L148.35 30.104ZM161.634 30.32L160.471 31.9475L160.522 31.9833L160.574 32.016L161.634 30.32ZM161.166 29.78L162.881 28.751L162.871 28.7339L162.86 28.717L161.166 29.78ZM154.254 18.764L153.757 16.8267L151.104 17.507L152.56 19.827L154.254 18.764ZM157.062 18.044L158.757 16.9829L157.981 15.7435L156.565 16.1067L157.062 18.044ZM163.506 28.34L165.202 27.28L165.201 27.2789L163.506 28.34ZM163.686 29.852L161.938 28.8807L161.916 28.9187L161.897 28.9576L163.686 29.852ZM148.746 16.784H146.746V18.784H148.746V16.784ZM157.314 16.064L158.227 17.8436L158.235 17.8393L158.244 17.8348L157.314 16.064ZM159.582 14.012L157.896 12.9352L157.896 12.9352L159.582 14.012ZM159.582 7.964L157.871 8.9996L157.877 9.00977L157.883 9.01987L159.582 7.964ZM157.314 5.84L156.366 7.60094L156.375 7.60592L156.384 7.61079L157.314 5.84ZM148.746 5.084V3.084H146.746V5.084H148.746ZM147.342 28.5C147.356 28.5 147.422 28.5028 147.515 28.5395C147.612 28.5775 147.692 28.6341 147.748 28.6898L144.92 31.5182C145.595 32.1939 146.458 32.5 147.342 32.5V28.5ZM147.748 28.6898C147.804 28.7454 147.86 28.8259 147.898 28.9227C147.935 29.016 147.938 29.0821 147.938 29.096H143.938C143.938 29.9803 144.244 30.8425 144.92 31.5182L147.748 28.6898ZM147.938 29.096V3.788H143.938V29.096H147.938ZM147.938 3.788C147.938 3.80191 147.935 3.868 147.898 3.9613C147.86 4.05809 147.804 4.13856 147.748 4.19421L144.92 1.36578C144.244 2.04151 143.938 2.90375 143.938 3.788H147.938ZM147.748 4.19421C147.692 4.24986 147.612 4.30648 147.515 4.3445C147.422 4.38116 147.356 4.384 147.342 4.384V0.383999C146.458 0.383999 145.595 0.690061 144.92 1.36578L147.748 4.19421ZM147.342 4.384H154.074V0.383999H147.342V4.384ZM154.074 4.384C155.534 4.384 156.759 4.69155 157.798 5.25697L159.709 1.74303C158.013 0.82045 156.117 0.383999 154.074 0.383999V4.384ZM157.822 5.26983C158.863 5.81728 159.652 6.57442 160.229 7.56579L163.687 5.55421C162.727 3.90558 161.381 2.62272 159.685 1.73016L157.822 5.26983ZM160.251 7.6029C160.829 8.54778 161.146 9.67795 161.146 11.06H165.146C165.146 9.03405 164.671 7.16422 163.664 5.5171L160.251 7.6029ZM161.146 11.06C161.146 12.3529 160.837 13.4322 160.26 14.3589L163.656 16.4731C164.663 14.8558 165.146 13.0311 165.146 11.06H161.146ZM160.246 14.3823C159.674 15.3294 158.882 16.0767 157.822 16.6342L159.685 20.1738C161.362 19.2913 162.706 18.0466 163.67 16.4497L160.246 14.3823ZM157.822 16.6342C156.778 17.1839 155.545 17.484 154.074 17.484V21.484C156.107 21.484 157.994 21.0641 159.685 20.1738L157.822 16.6342ZM154.074 17.484H148.746V21.484H154.074V17.484ZM146.746 19.484V29.096H150.746V19.484H146.746ZM146.746 29.096C146.746 29.0821 146.749 29.016 146.785 28.9227C146.823 28.8259 146.88 28.7454 146.936 28.6898L149.764 31.5182C150.44 30.8425 150.746 29.9803 150.746 29.096H146.746ZM146.936 28.6898C146.991 28.6341 147.072 28.5775 147.169 28.5395C147.262 28.5028 147.328 28.5 147.342 28.5V32.5C148.226 32.5 149.088 32.1939 149.764 31.5182L146.936 28.6898ZM162.39 28.5C162.316 28.5 162.469 28.4837 162.694 28.624L160.574 32.016C161.182 32.3963 161.839 32.5 162.39 32.5V28.5ZM162.796 28.6925C162.859 28.737 162.892 28.7737 162.902 28.7851C162.912 28.7963 162.903 28.7884 162.881 28.751L159.451 30.809C159.689 31.2054 160.016 31.622 160.471 31.9475L162.796 28.6925ZM162.86 28.717L155.948 17.701L152.56 19.827L159.472 30.843L162.86 28.717ZM154.751 20.7013L157.559 19.9813L156.565 16.1067L153.757 16.8267L154.751 20.7013ZM155.367 19.1051L161.811 29.4011L165.201 27.2789L158.757 16.9829L155.367 19.1051ZM161.81 29.4C161.884 29.5185 161.849 29.5084 161.835 29.3864C161.827 29.3211 161.827 29.2349 161.846 29.1368C161.865 29.0381 161.899 28.951 161.938 28.8807L165.434 30.8233C166.156 29.5242 165.784 28.2109 165.202 27.28L161.81 29.4ZM161.897 28.9576C161.934 28.8838 161.99 28.8003 162.069 28.7213C162.148 28.6422 162.232 28.586 162.305 28.5491C162.445 28.4792 162.505 28.5 162.39 28.5V32.5C163.493 32.5 164.803 32.0895 165.475 30.7464L161.897 28.9576ZM148.746 18.784H154.074V14.784H148.746V18.784ZM154.074 18.784C155.563 18.784 156.965 18.4905 158.227 17.8436L156.401 14.2844C155.791 14.5975 155.032 14.784 154.074 14.784V18.784ZM158.244 17.8348C159.493 17.1788 160.517 16.2629 161.267 15.0888L157.896 12.9352C157.543 13.4891 157.055 13.9412 156.384 14.2932L158.244 17.8348ZM161.267 15.0888C162.041 13.8784 162.41 12.515 162.41 11.06H158.41C158.41 11.813 158.227 12.4176 157.896 12.9352L161.267 15.0888ZM162.41 11.06C162.41 9.55865 162.053 8.15138 161.28 6.90813L157.883 9.01987C158.214 9.55262 158.41 10.2094 158.41 11.06H162.41ZM161.293 6.92839C160.549 5.69918 159.52 4.73949 158.244 4.0692L156.384 7.61079C157.027 7.94851 157.511 8.40481 157.871 8.9996L161.293 6.92839ZM158.262 4.07905C156.993 3.39583 155.578 3.084 154.074 3.084V7.084C155.017 7.084 155.763 7.27617 156.366 7.60094L158.262 4.07905ZM154.074 3.084H148.746V7.084H154.074V3.084ZM146.746 5.084V16.784H150.746V5.084H146.746Z" fill="#005BFF"/>
</svg>
