<svg width="16" height="16" viewBox="0 0 16 16" fill="none" xmlns="http://www.w3.org/2000/svg">
<g clip-path="url(#clip0_332_2933)">
<path d="M4.25 7C5.76878 7 7 5.76878 7 4.25C7 2.73122 5.76878 1.5 4.25 1.5C2.73122 1.5 1.5 2.73122 1.5 4.25C1.5 5.76878 2.73122 7 4.25 7Z" stroke="white" stroke-linecap="round" stroke-linejoin="round"/>
<path d="M11.75 7C13.2688 7 14.5 5.76878 14.5 4.25C14.5 2.73122 13.2688 1.5 11.75 1.5C10.2312 1.5 9 2.73122 9 4.25C9 5.76878 10.2312 7 11.75 7Z" stroke="white" stroke-linecap="round" stroke-linejoin="round"/>
<path d="M4.25 14.5C5.76878 14.5 7 13.2688 7 11.75C7 10.2312 5.76878 9 4.25 9C2.73122 9 1.5 10.2312 1.5 11.75C1.5 13.2688 2.73122 14.5 4.25 14.5Z" stroke="white" stroke-linecap="round" stroke-linejoin="round"/>
<path d="M11.75 14.5C13.2688 14.5 14.5 13.2688 14.5 11.75C14.5 10.2312 13.2688 9 11.75 9C10.2312 9 9 10.2312 9 11.75C9 13.2688 10.2312 14.5 11.75 14.5Z" stroke="white" stroke-linecap="round" stroke-linejoin="round"/>
</g>
<defs>
<clipPath id="clip0_332_2933">
<rect width="14" height="14" fill="white" transform="translate(1 1)"/>
</clipPath>
</defs>
</svg>
