<svg width="24" height="24" viewBox="0 0 24 24" fill="none" xmlns="http://www.w3.org/2000/svg">
<g clip-path="url(#clip0_243_990)">
<path d="M16.7878 22.6408C16.4663 22.9622 16.0303 23.1429 15.5756 23.1429H8.42433C7.96969 23.1429 7.53364 22.9622 7.21216 22.6408L1.35922 16.7878C1.03773 16.4664 0.857117 16.0303 0.857117 15.5757V8.42439C0.857117 7.96975 1.03773 7.5337 1.35922 7.21222L7.21216 1.35928C7.53364 1.03779 7.96969 0.857178 8.42433 0.857178H15.5756C16.0303 0.857178 16.4663 1.03779 16.7878 1.35928L22.6407 7.21222C22.9621 7.5337 23.1428 7.96975 23.1428 8.42439V15.5757C23.1428 16.0303 22.9621 16.4664 22.6407 16.7878L16.7878 22.6408Z" stroke="#F04346" stroke-linecap="round" stroke-linejoin="round"/>
<path d="M12 6.85718V12.4286" stroke="#F04346" stroke-linecap="round" stroke-linejoin="round"/>
<path d="M12 17.1429C11.7633 17.1429 11.5714 16.951 11.5714 16.7143C11.5714 16.4776 11.7633 16.2858 12 16.2858" stroke="#F04346" stroke-linecap="round" stroke-linejoin="round"/>
<path d="M12 17.1429C12.2367 17.1429 12.4286 16.951 12.4286 16.7143C12.4286 16.4776 12.2367 16.2858 12 16.2858" stroke="#F04346" stroke-linecap="round" stroke-linejoin="round"/>
</g>
<defs>
<clipPath id="clip0_243_990">
<rect width="24" height="24" fill="white"/>
</clipPath>
</defs>
</svg>
